<svg xmlns="http://www.w3.org/2000/svg" xmlns:xlink="http://www.w3.org/1999/xlink" width="500" zoomAndPan="magnify" viewBox="0 0 375 374.999991" height="500" preserveAspectRatio="xMidYMid meet" version="1.0"><defs><clipPath id="5255b6604b"><path d="M 198.539062 262.257812 L 331 262.257812 L 331 356.710938 L 198.539062 356.710938 Z M 198.539062 262.257812 " clip-rule="nonzero"/></clipPath><clipPath id="078f1aafae"><path d="M 198 261 L 327.855469 261 L 327.855469 356.710938 L 198 356.710938 Z M 198 261 " clip-rule="nonzero"/></clipPath><clipPath id="53b09bcfe1"><path d="M 264.773438 174 L 374.601562 174 L 374.601562 289.855469 L 264.773438 289.855469 Z M 264.773438 174 " clip-rule="nonzero"/></clipPath></defs><path fill="#402813" d="M 105.316406 90.351562 L 110.871094 91.824219 L 110.671875 92.582031 L 105.117188 91.109375 Z M 80 106.574219 L 80.726562 106.878906 L 78.820312 111.394531 L 78.09375 111.089844 Z M 71.976562 102.542969 L 72.589844 103.035156 L 69.605469 106.75 L 68.992188 106.253906 Z M 67.382812 97.503906 L 67.789062 98.175781 L 63.53125 100.734375 L 63.121094 100.058594 Z M 57.949219 94.144531 L 63.195312 92.289062 L 63.457031 93.03125 L 58.210938 94.890625 Z M 86.261719 106.320312 L 87.050781 106.320312 L 87.050781 111.242188 L 86.261719 111.242188 Z M 103.660156 95.054688 L 108.925781 97.480469 L 108.597656 98.199219 L 103.332031 95.773438 Z M 94.273438 104.179688 L 96.027344 108.527344 L 95.296875 108.824219 L 93.546875 104.476562 Z M 99.277344 100.765625 L 102.488281 104.84375 L 101.871094 105.332031 L 98.65625 101.25 Z M 117.847656 166.8125 L 113.820312 173.15625 L 113.15625 172.734375 L 117.179688 166.390625 Z M 151.058594 174.710938 C 150.765625 176.425781 136.671875 215.101562 120.378906 228.296875 L 119.882812 227.683594 C 135.660156 214.90625 150.007812 176.214844 150.285156 174.578125 C 150.527344 173.160156 146.4375 154.867188 143.628906 142.925781 L 143.613281 142.875 L 143.617188 142.820312 C 143.730469 139.34375 144.664062 111.96875 145.304688 104.726562 L 133.382812 122 C 132.804688 124.394531 124.039062 160.640625 121.34375 165.0625 C 121.480469 166.46875 121.949219 171.207031 122.453125 176.632812 C 126.316406 162.003906 141.964844 161.824219 142.140625 161.824219 C 142.140625 161.824219 142.140625 161.824219 142.144531 161.824219 L 142.140625 162.613281 C 141.449219 162.613281 125.210938 162.808594 122.695312 179.304688 C 122.703125 179.382812 122.710938 179.46875 122.71875 179.550781 C 130.054688 167.433594 141.320312 172.53125 141.4375 172.589844 L 141.101562 173.304688 C 140.640625 173.085938 129.785156 168.203125 122.84375 180.921875 C 123.53125 188.621094 124.144531 196.339844 123.9375 197.277344 C 123.511719 199.199219 117.222656 203.003906 116.503906 203.433594 L 116.101562 202.753906 C 118.691406 201.207031 122.902344 198.304688 123.167969 197.105469 C 123.339844 196.328125 122.789062 189.183594 122.050781 180.964844 L 121.945312 180.910156 C 121.976562 180.855469 122.003906 180.808594 122.03125 180.757812 C 121.5625 175.464844 121.015625 169.75 120.546875 165.003906 L 120.53125 164.859375 L 120.613281 164.742188 C 123.15625 161.003906 132.539062 122.140625 132.632812 121.746094 L 132.691406 121.617188 L 145.429688 103.160156 C 143.441406 101.46875 120.644531 92.714844 105.433594 87.113281 L 105.707031 86.375 C 115.027344 89.808594 145.507812 101.152344 146.261719 102.941406 C 146.316406 103.074219 146.316406 103.210938 146.261719 103.335938 C 145.832031 104.5 144.917969 127.550781 144.40625 142.792969 C 145.179688 146.085938 151.40625 172.6875 151.058594 174.710938 Z M 50.796875 179.742188 C 46.082031 181.246094 41.839844 180.914062 38.179688 178.738281 C 29.988281 173.867188 27.121094 161.238281 26.773438 159.558594 C 31.1875 152.128906 36.207031 147.433594 36.953125 146.753906 C 44.230469 146.097656 49.957031 147.542969 53.984375 151.035156 C 59.058594 155.433594 59.734375 161.753906 59.804688 162.617188 C 59.34375 163.546875 55.691406 170.84375 50.796875 179.742188 Z M 54.511719 150.445312 C 50.292969 146.78125 44.316406 145.273438 36.75 145.980469 L 36.621094 145.992188 L 36.527344 146.078125 C 36.433594 146.160156 31.816406 150.25 27.355469 157.140625 C 24.339844 157.839844 16.824219 169.765625 15.3125 172.222656 L 15.980469 172.632812 C 18.984375 167.78125 23.976562 160.511719 26.523438 158.457031 C 22.371094 165.230469 18.605469 174.390625 19.078125 184.925781 L 19.867188 184.894531 C 19.441406 175.398438 22.523438 167.039062 26.191406 160.574219 C 26.992188 164.011719 30.054688 174.820312 37.773438 179.414062 C 40.070312 180.777344 42.574219 181.460938 45.265625 181.460938 C 46.867188 181.460938 48.535156 181.207031 50.261719 180.722656 C 41.800781 196.03125 29.960938 215.46875 24.289062 215.6875 C 14.417969 216.078125 9.808594 207.289062 5.554688 193.007812 C 1.03125 177.816406 13.433594 158.945312 13.558594 158.753906 L 13.636719 158.640625 L 13.621094 158.507812 C 12.328125 141.9375 10.300781 110.097656 11.691406 105.914062 C 29.371094 106.273438 38.058594 142.554688 38.144531 142.925781 L 38.914062 142.746094 C 38.558594 141.230469 30.171875 106.203125 12.261719 105.140625 C 16.3125 101.734375 42.617188 92.871094 60.320312 87.445312 L 60.089844 86.691406 C 55.289062 88.164062 13.097656 101.195312 11.066406 105.335938 C 9.0625 109.425781 12.5625 155.042969 12.828125 158.433594 C 11.777344 160.0625 0.359375 178.316406 4.800781 193.230469 C 9.066406 207.566406 13.746094 216.488281 23.664062 216.488281 C 23.878906 216.488281 24.097656 216.484375 24.316406 216.476562 C 34.101562 216.101562 59.480469 165.046875 60.558594 162.875 L 60.601562 162.78125 L 60.601562 162.679688 C 60.585938 162.382812 60.191406 155.382812 54.511719 150.445312 " fill-opacity="1" fill-rule="nonzero"/><path fill="#000000" d="M 69.800781 78.210938 L 60.207031 87.070312 C 60.207031 87.070312 71.347656 111.964844 89.128906 106.261719 C 106.914062 100.558594 105.570312 86.742188 105.570312 86.742188 L 95.421875 80.847656 Z M 47.453125 142.230469 C 47.453125 142.230469 44.738281 135.890625 39.300781 140.820312 C 36.523438 143.34375 34.851562 146.195312 33.878906 148.378906 C 32.945312 150.46875 33.292969 152.902344 34.746094 154.671875 C 38.84375 159.644531 48.164062 169.183594 55.484375 163.46875 C 65.148438 155.917969 62.855469 152.496094 47.453125 142.230469 Z M 114.894531 210.34375 C 128.050781 225.105469 129.53125 307.328125 129.53125 307.328125 L 38.191406 330.195312 C 38.191406 330.195312 28.460938 270.46875 27.660156 250.292969 C 26.855469 230.117188 39.199219 210.34375 39.199219 210.34375 L 114.894531 210.34375 " fill-opacity="1" fill-rule="nonzero"/><path fill="#f9c2af" d="M 52.453125 157.414062 L 59.65625 143.925781 C 82.964844 133.65625 88.289062 125.40625 86.378906 124.375 C 84.464844 123.347656 73.863281 129.53125 73.863281 129.53125 C 88.882812 120.832031 92.933594 118.867188 91.121094 116.496094 C 89.3125 114.121094 83.15625 118.355469 83.15625 118.355469 C 92.015625 113.828125 92.953125 110.960938 90.808594 110.101562 C 88.574219 109.210938 68.257812 118.355469 68.257812 118.355469 C 68.257812 118.355469 79.332031 107.886719 81.949219 105.117188 C 84.5625 102.339844 81.542969 98.625 78.828125 101.347656 C 76.109375 104.0625 55.273438 121.375 55.273438 121.375 C 54.570312 120.671875 57.789062 114.332031 59.199219 110.304688 C 60.609375 106.277344 56.882812 99.933594 54.96875 105.117188 C 53.058594 110.292969 47.117188 119.566406 46.011719 123.492188 C 44.902344 127.414062 46.011719 139.597656 46.011719 139.597656 L 40.679688 148.355469 C 45.109375 159.023438 52.453125 157.414062 52.453125 157.414062 Z M 108.660156 56.75 C 107.742188 60.570312 103.71875 76.574219 101.03125 78.148438 C 99.902344 78.816406 97.078125 78.542969 96.273438 78.714844 C 94.886719 79.011719 95.644531 80.734375 95.367188 82.136719 C 95.175781 83.128906 94.570312 84 93.707031 84.519531 C 90.480469 86.441406 81.953125 89.832031 71.351562 80.578125 C 70.664062 79.976562 70.214844 79.140625 70.121094 78.234375 L 68.574219 63.84375 C 68.421875 62.457031 67.488281 61.257812 66.164062 60.839844 C 64.402344 60.277344 61.816406 58.792969 59.378906 54.855469 C 56.832031 50.730469 58.371094 47.363281 61.011719 46.050781 C 61.011719 46.050781 70.105469 51.640625 68.898438 47.710938 C 67.691406 43.785156 71.207031 28.683594 71.207031 28.683594 L 68.898438 26.273438 L 72.71875 27.675781 C 82.585938 21.539062 100.398438 25.871094 103.820312 26.570312 C 107.25 27.273438 108.109375 33.933594 108.109375 33.933594 L 108.101562 33.945312 C 108.296875 35.480469 108.347656 37.058594 108.140625 38.660156 C 107.109375 46.570312 108.238281 53.050781 108.6875 55.1875 C 108.796875 55.707031 108.789062 56.234375 108.660156 56.75 " fill-opacity="1" fill-rule="nonzero"/><path fill="#ffffff" d="M 102.179688 63.394531 C 102.179688 63.394531 96.511719 67.152344 83.691406 64.066406 C 83.691406 64.066406 90.738281 70.980469 96.109375 69.636719 C 101.476562 68.296875 102.179688 63.394531 102.179688 63.394531 Z M 87.785156 46.734375 C 87.785156 46.734375 82.515625 42.808594 75.707031 45.261719 C 75.707031 45.261719 76.578125 49.730469 81.078125 50.496094 C 87.785156 51.636719 87.785156 46.734375 87.785156 46.734375 Z M 102.179688 49.691406 C 97.785156 50.695312 97.71875 46.605469 97.71875 46.605469 C 101.140625 42.441406 106.640625 43.851562 106.640625 43.851562 C 106.640625 43.851562 106.578125 48.683594 102.179688 49.691406 " fill-opacity="1" fill-rule="nonzero"/><path fill="#402813" d="M 85.191406 128.550781 L 84.785156 127.875 C 84.550781 128.011719 83.792969 128.367188 83.375 128.171875 C 83.308594 128.144531 83.101562 128.046875 83.023438 127.570312 C 82.828125 126.394531 85.710938 125.519531 86.738281 125.304688 L 86.574219 124.53125 C 86.09375 124.632812 81.894531 125.578125 82.246094 127.699219 C 82.371094 128.433594 82.75 128.753906 83.042969 128.886719 C 83.246094 128.980469 83.460938 129.015625 83.671875 129.015625 C 84.386719 129.015625 85.09375 128.609375 85.191406 128.550781 Z M 88.652344 120.351562 C 88.621094 120.351562 87.910156 120.335938 87.910156 119.128906 C 87.910156 118.074219 90.332031 117.289062 91.179688 117.097656 L 91.003906 116.328125 C 90.605469 116.417969 87.121094 117.257812 87.121094 119.128906 C 87.121094 120.710938 88.117188 121.140625 88.644531 121.140625 Z M 88.953125 115.269531 L 88.921875 114.484375 C 88.914062 114.484375 88.222656 114.503906 87.832031 114.125 C 87.648438 113.949219 87.558594 113.710938 87.558594 113.390625 C 87.558594 112.515625 89.695312 111.4375 91.214844 110.945312 L 90.96875 110.199219 C 90.542969 110.332031 86.773438 111.597656 86.773438 113.390625 C 86.773438 113.929688 86.945312 114.367188 87.285156 114.699219 C 87.851562 115.238281 88.6875 115.273438 88.898438 115.273438 C 88.929688 115.273438 88.945312 115.273438 88.953125 115.269531 Z M 81.691406 105.851562 L 81.53125 105.078125 C 81.472656 105.09375 80.074219 105.371094 79.6875 104.253906 C 79.390625 103.386719 80.941406 101.769531 81.988281 100.953125 L 81.503906 100.328125 C 81.179688 100.578125 78.363281 102.832031 78.941406 104.507812 C 79.324219 105.617188 80.339844 105.90625 81.117188 105.90625 C 81.332031 105.90625 81.53125 105.886719 81.691406 105.851562 Z M 56.507812 108.316406 C 58.636719 106.632812 57.136719 103.164062 57.074219 103.015625 L 56.351562 103.332031 C 56.363281 103.363281 57.671875 106.390625 56.015625 107.695312 C 55.4375 108.15625 54.9375 108.351562 54.570312 108.261719 C 54.230469 108.175781 54.085938 107.863281 54.078125 107.855469 L 53.351562 108.160156 C 53.460938 108.410156 53.789062 108.875 54.367188 109.023438 C 54.492188 109.054688 54.621094 109.070312 54.753906 109.070312 C 55.28125 109.070312 55.871094 108.816406 56.507812 108.316406 Z M 59.84375 144.269531 L 59.464844 143.582031 L 57.800781 144.5 L 58.183594 145.191406 Z M 88.550781 121.292969 L 88.140625 120.621094 L 70.46875 131.425781 L 70.878906 132.097656 Z M 86.855469 116.753906 L 86.453125 116.070312 L 68.058594 126.925781 L 68.457031 127.605469 Z M 65.421875 121.257812 L 64.914062 120.65625 L 68.003906 118.054688 L 68.511719 118.660156 L 65.421875 121.257812 " fill-opacity="1" fill-rule="nonzero"/><path fill="#402813" d="M 125.824219 248.621094 C 122.097656 218.796875 115.480469 210.433594 115.199219 210.09375 L 114.589844 210.59375 C 114.660156 210.675781 121.34375 219.121094 125.042969 248.71875 C 128.753906 278.402344 128.726562 306.34375 128.726562 306.625 L 129.515625 306.625 C 129.515625 306.347656 129.542969 278.359375 125.824219 248.621094 Z M 54.917969 212.332031 L 38.25 232.535156 L 40.011719 235.230469 L 57.339844 214.402344 Z M 54.820312 211.210938 L 58.441406 214.304688 L 39.933594 236.554688 L 37.269531 232.476562 Z M 110.300781 255.890625 L 86.726562 273.34375 L 107.492188 264.273438 L 107.808594 264.996094 L 84.109375 275.347656 L 88 317.785156 L 87.214844 317.859375 L 83.277344 274.917969 L 93.566406 267.300781 L 93.566406 215.710938 L 94.355469 215.710938 L 94.355469 266.714844 L 109.828125 255.253906 L 110.300781 255.890625 " fill-opacity="1" fill-rule="nonzero"/><path fill="#ffffff" d="M 98.089844 203.09375 L 98.089844 215.566406 C 92.230469 216.046875 86.046875 216.148438 79.96875 216.042969 L 79.96875 203.09375 L 98.089844 203.09375 " fill-opacity="1" fill-rule="nonzero"/><path fill="#402813" d="M 95.367188 205.445312 L 83.691406 205.445312 L 83.691406 213.195312 L 95.367188 213.195312 Z M 98.089844 203.09375 L 98.089844 215.566406 C 104.800781 215.015625 111.082031 213.980469 116.304688 212.246094 L 116.304688 203.09375 Z M 39.070312 203.09375 L 79.96875 203.09375 L 79.96875 216.042969 C 58.390625 215.597656 38.101562 212.246094 38.101562 212.246094 L 39.070312 203.09375 " fill-opacity="1" fill-rule="nonzero"/><path fill="#402813" d="M 91.066406 97.6875 C 91.066406 96.863281 90.589844 96.167969 90.019531 96.167969 C 89.453125 96.167969 88.972656 96.863281 88.972656 97.6875 C 88.972656 98.511719 89.453125 99.207031 90.019531 99.207031 C 90.589844 99.207031 91.066406 98.511719 91.066406 97.6875 Z M 91.855469 97.6875 C 91.855469 98.957031 91.03125 99.992188 90.019531 99.992188 C 89.011719 99.992188 88.1875 98.957031 88.1875 97.6875 C 88.1875 96.417969 89.011719 95.378906 90.019531 95.378906 C 91.03125 95.378906 91.855469 96.417969 91.855469 97.6875 Z M 102.238281 85.121094 L 97.289062 101.160156 L 85.855469 88.984375 L 88.34375 106.445312 L 87.5625 106.558594 L 85.046875 88.898438 L 75.359375 103.765625 L 62.035156 85.792969 L 62.671875 85.324219 L 75.316406 102.382812 L 85.234375 87.171875 L 96.9375 99.632812 L 101.484375 84.890625 L 102.238281 85.121094 " fill-opacity="1" fill-rule="nonzero"/><path fill="#402813" d="M 112.328125 25.019531 C 111.042969 29.503906 108.109375 33.933594 108.109375 33.933594 C 108.109375 33.933594 107.25 27.273438 103.820312 26.570312 C 100.398438 25.871094 82.585938 21.539062 72.71875 27.675781 L 68.898438 26.273438 L 71.207031 28.683594 C 71.207031 28.683594 67.691406 43.785156 68.898438 47.710938 C 70.105469 51.640625 61.011719 46.050781 61.011719 46.050781 C 58.464844 41.269531 53.6875 31.035156 56.417969 25.964844 C 59.933594 19.417969 66.683594 21.945312 67.070312 22.09375 C 66.832031 21.917969 64.394531 19.820312 73.722656 13.078125 C 77.75 10.179688 82.460938 9.859375 87.363281 10.605469 C 76.453125 13.648438 71.730469 23.867188 71.671875 23.996094 L 72.394531 24.316406 C 72.453125 24.191406 77.539062 13.21875 89.347656 10.957031 C 92.039062 11.503906 94.769531 12.308594 97.460938 13.121094 C 86.902344 15.390625 78.574219 20.929688 78.457031 21.011719 L 78.894531 21.664062 C 79.019531 21.582031 87.996094 15.609375 99.050781 13.601562 C 102.191406 14.550781 105.253906 15.453125 108.109375 15.90625 C 112.855469 16.652344 113.4375 20.214844 112.59375 23.980469 C 111.515625 22.488281 110.164062 21.324219 108.546875 20.503906 C 101.640625 16.996094 92.417969 20.8125 92.03125 20.972656 L 92.335938 21.699219 C 92.425781 21.660156 101.609375 17.863281 108.1875 21.207031 C 109.886719 22.066406 111.261719 23.355469 112.328125 25.019531 Z M 85.089844 64.785156 C 87.257812 66.613281 92.148438 70.214844 96.011719 69.253906 C 99.796875 68.308594 101.140625 65.550781 101.585938 64.15625 C 99.691406 65.027344 94.433594 66.746094 85.089844 64.785156 Z M 94.640625 70.207031 C 89.453125 70.207031 83.683594 64.609375 83.417969 64.347656 L 82.398438 63.351562 L 83.785156 63.683594 C 96.289062 66.695312 101.90625 63.105469 101.960938 63.066406 L 102.695312 62.582031 L 102.570312 63.453125 C 102.5625 63.503906 101.765625 68.628906 96.203125 70.019531 C 95.691406 70.148438 95.171875 70.207031 94.640625 70.207031 Z M 91.058594 60.324219 L 90.753906 59.59375 L 93.304688 58.519531 L 93.609375 59.246094 Z M 95.855469 60.597656 L 95.351562 59.988281 C 96.359375 59.152344 97.960938 57.511719 97.960938 56.667969 C 97.960938 55.765625 95.851562 51.671875 94.519531 49.300781 L 95.207031 48.917969 C 95.570312 49.5625 98.75 55.265625 98.75 56.667969 C 98.75 58.152344 96.152344 60.351562 95.855469 60.597656 Z M 95.542969 82.902344 L 94.761719 82.796875 L 95.222656 79.390625 C 93.234375 79.011719 84.035156 77.191406 79.296875 74.945312 C 73.953125 72.410156 71.984375 64.609375 71.902344 64.28125 L 72.667969 64.089844 C 72.6875 64.167969 74.632812 71.855469 79.636719 74.230469 C 84.761719 76.664062 95.625 78.664062 95.734375 78.683594 L 96.105469 78.75 Z M 66.589844 53.199219 C 64.050781 49.484375 60.261719 51.015625 60.222656 51.03125 L 59.917969 50.304688 C 59.960938 50.289062 64.34375 48.511719 67.242188 52.753906 Z M 105.546875 36.824219 L 106.824219 39.242188 C 101.945312 37.609375 97.519531 41.035156 97.519531 41.035156 L 97.519531 38.886719 C 101.273438 34.726562 105.546875 36.824219 105.546875 36.824219 Z M 87.660156 41.304688 C 85.386719 38.886719 75.707031 40.296875 75.707031 40.296875 L 77.71875 38.011719 C 85.101562 35.332031 88.023438 39.554688 88.023438 39.554688 Z M 80.585938 50.394531 C 82.347656 43.71875 87.660156 47.5625 87.660156 47.5625 C 86.496094 52.078125 80.585938 50.394531 80.585938 50.394531 Z M 75.707031 45.5625 L 75.707031 44.726562 C 82.554688 41.875 88.023438 46.734375 88.023438 46.734375 C 81.3125 42.90625 75.707031 45.5625 75.707031 45.5625 Z M 107.046875 43.621094 C 107.046875 43.621094 105.769531 42.511719 102.882812 43.148438 C 100 43.785156 97.519531 46.503906 97.519531 46.503906 C 97.519531 46.503906 103.21875 42.945312 106.777344 44.15625 Z M 100.601562 49.835938 C 101.105469 43.851562 106.3125 45.703125 106.3125 45.703125 C 105.210938 50.175781 100.601562 49.835938 100.601562 49.835938 " fill-opacity="1" fill-rule="nonzero"/><path fill="#ddb592" d="M 177.074219 130.914062 C 166.152344 128.96875 158.410156 110.65625 155.050781 101.007812 C 154.144531 103.609375 153.546875 106.472656 153.3125 109.617188 C 150.5 147.867188 192.496094 200.011719 192.496094 200.011719 L 196.144531 198.8125 Z M 340.582031 184.691406 L 318.199219 194.570312 C 318.199219 194.570312 296.453125 172.648438 291.625 159.957031 C 291.625 159.957031 280.261719 154.328125 272.527344 149.332031 C 274.886719 133.707031 288.542969 126.238281 297.605469 122.96875 C 305.605469 135.898438 311.953125 147.570312 311.953125 147.570312 C 311.953125 147.570312 332.367188 161.523438 340.582031 184.691406 " fill-opacity="1" fill-rule="nonzero"/><path fill="#402813" d="M 291.878906 47.023438 C 288.371094 53.628906 284.484375 55.761719 282.421875 56.449219 C 280.332031 52.167969 289.070312 54.117188 289.003906 41.34375 C 288.984375 37.195312 288.167969 33.179688 286.738281 29.609375 C 290.34375 33.570312 295.265625 40.636719 291.878906 47.023438 Z M 246.644531 22.925781 L 245.859375 23.011719 C 245.085938 16.046875 252.371094 13.636719 252.445312 13.613281 L 252.6875 14.363281 C 252.410156 14.453125 245.941406 16.605469 246.644531 22.925781 Z M 241.449219 22.488281 L 240.6875 22.289062 C 240.695312 22.253906 241.609375 18.566406 239.449219 15.433594 C 237.761719 12.992188 234.679688 11.507812 230.292969 11.027344 L 230.382812 10.242188 C 235.011719 10.75 238.277344 12.351562 240.101562 14.996094 C 242.46875 18.425781 241.492188 22.324219 241.449219 22.488281 Z M 209.386719 11.296875 C 211.078125 9.234375 213.5625 7.226562 217.191406 5.625 C 227.324219 1.15625 232.160156 5.148438 233.847656 7.214844 C 232.425781 7.34375 230.980469 7.230469 229.570312 6.847656 C 223.351562 5.15625 215.453125 6.910156 209.386719 11.296875 Z M 195.183594 52.371094 C 190.890625 57.109375 189.816406 62.535156 190.082031 67.375 C 189.8125 65.789062 189.710938 64.164062 189.785156 62.535156 C 189.988281 58.152344 191.484375 54.378906 193.683594 52.683594 C 197.003906 50.128906 199.496094 46.125 200.921875 43.429688 C 200.441406 45.667969 198.914062 48.25 195.183594 52.371094 Z M 285.761719 27.4375 C 282.578125 21.066406 277.304688 16.574219 271.105469 16.203125 C 260.949219 15.597656 263.441406 9.160156 252.566406 4.730469 C 246.742188 2.355469 241.976562 3.796875 238.808594 5.644531 C 237.53125 6.390625 236.152344 6.867188 234.734375 7.105469 C 233.160156 5.039062 227.941406 0.0234375 216.875 4.90625 C 211.796875 7.144531 208.875 10.160156 207.210938 13.0625 C 203.546875 16.375 200.871094 20.785156 200.191406 26.070312 C 199.109375 34.429688 200.949219 37.925781 201.085938 41.316406 C 200.035156 43.550781 197.199219 48.980469 193.203125 52.058594 C 190.828125 53.890625 189.210938 57.890625 189 62.5 C 188.820312 66.347656 189.554688 70.082031 191.074219 73.421875 C 192.269531 77.808594 194.050781 80.828125 194.050781 80.828125 L 202.070312 82.882812 C 200.015625 78.265625 193.507812 61.957031 201.433594 57.335938 C 210.226562 52.207031 213.863281 40.859375 214.089844 34.910156 C 214.128906 33.90625 214.101562 32.832031 214.070312 31.695312 C 213.925781 26.070312 213.746094 19.0625 222.28125 15.371094 C 225.109375 14.148438 227.511719 14.117188 229.425781 15.277344 C 233.152344 17.542969 233.613281 23.476562 233.628906 23.726562 L 232.84375 23.785156 C 232.84375 23.726562 232.390625 18 229.011719 15.953125 C 227.335938 14.933594 225.171875 14.980469 222.589844 16.09375 C 214.546875 19.574219 214.710938 26.003906 214.855469 31.675781 C 214.886719 32.824219 214.914062 33.90625 214.878906 34.941406 C 214.644531 41.054688 210.894531 52.726562 201.832031 58.015625 C 194.207031 62.464844 201.492188 79.691406 203.050781 83.136719 L 206.757812 84.089844 C 206.265625 79.292969 205.582031 70.8125 206.34375 66.554688 C 207.457031 60.296875 214.394531 59.90625 214.464844 59.902344 L 214.5 60.6875 C 214.242188 60.703125 208.125 61.0625 207.121094 66.691406 C 206.371094 70.890625 207.09375 79.589844 207.574219 84.296875 L 273.675781 101.261719 C 272.636719 97.65625 270.546875 89.246094 270.710938 80.519531 C 270.847656 73.398438 273.941406 70.664062 276.199219 68.667969 C 277.722656 67.324219 278.820312 66.351562 278.746094 64.589844 C 278.667969 62.683594 277.753906 61.339844 276.703125 59.78125 C 275.1875 57.539062 273.46875 55.007812 274.015625 50.207031 C 274.347656 47.3125 275.863281 44.800781 277.328125 42.371094 C 280 37.9375 282.527344 33.75 278.308594 27.394531 C 276.808594 25.128906 274.785156 23.761719 272.304688 23.332031 C 265.710938 22.183594 257.902344 27.933594 257.824219 27.992188 L 257.351562 27.363281 C 257.664062 27.128906 264.707031 21.949219 271.347656 22.429688 C 261.445312 18.191406 250.726562 24.464844 250.609375 24.535156 L 250.203125 23.855469 C 250.332031 23.78125 263.308594 16.164062 274.214844 23.039062 C 276.113281 23.757812 277.710938 25.066406 278.964844 26.957031 C 283.457031 33.730469 280.683594 38.332031 278.003906 42.777344 C 276.582031 45.132812 275.113281 47.574219 274.800781 50.296875 C 274.285156 54.804688 275.847656 57.109375 277.355469 59.335938 C 278.429688 60.925781 279.445312 62.425781 279.535156 64.554688 C 279.621094 66.695312 278.28125 67.882812 276.722656 69.257812 C 274.453125 71.265625 271.628906 73.761719 271.5 80.535156 C 271.328125 89.550781 273.597656 98.230469 274.5625 101.488281 L 280.347656 102.972656 C 280.347656 102.972656 273.300781 90.691406 282.765625 81.757812 C 291.921875 73.109375 285.441406 61.792969 282.8125 57.167969 C 285.066406 56.398438 289 54.125 292.574219 47.390625 C 296.789062 39.453125 289.335938 30.890625 285.761719 27.4375 " fill-opacity="1" fill-rule="nonzero"/><path fill="#ffffff" d="M 285.382812 201.148438 L 232.726562 189.339844 L 240.730469 170.214844 C 240.730469 170.214844 243.574219 154.023438 236.394531 153.867188 C 232.972656 153.789062 228.410156 157.265625 227.199219 165.28125 C 225.871094 174.09375 228.074219 187.53125 228.074219 187.53125 L 198.820312 197.929688 L 196.144531 198.8125 L 177.074219 130.914062 C 166.152344 128.96875 158.410156 110.65625 155.050781 101.007812 C 165.035156 72 212.5 75.390625 212.5 75.390625 L 256.570312 85.023438 C 256.570312 85.023438 274.3125 88.882812 286.585938 106.195312 C 290.316406 111.453125 294.117188 117.328125 297.605469 122.96875 C 288.542969 126.238281 274.886719 133.707031 272.527344 149.332031 C 269.71875 147.519531 267.386719 145.785156 266.25 144.445312 L 255.921875 163.371094 C 255.921875 163.371094 278.734375 182.753906 285.382812 201.148438 " fill-opacity="1" fill-rule="nonzero"/><path fill="#000000" d="M 225.085938 152.800781 L 203.042969 142.96875 L 215.117188 109.8125 L 231.734375 114.347656 L 225.085938 152.800781 " fill-opacity="1" fill-rule="nonzero"/><path fill="#402813" d="M 255.730469 162.898438 L 252.28125 161.839844 L 252.050781 162.59375 L 255.726562 163.722656 C 256.898438 164.726562 278.074219 183.121094 284.761719 200.601562 L 233.269531 189.0625 L 241.09375 170.363281 L 241.113281 170.28125 C 241.199219 169.828125 243.027344 159.15625 239.667969 155.0625 C 238.828125 154.039062 237.726562 153.503906 236.402344 153.472656 C 232.523438 153.410156 227.992188 157.390625 226.8125 165.222656 C 225.601562 173.230469 227.308594 185.152344 227.632812 187.269531 L 198.695312 197.554688 L 196.414062 198.308594 L 177.453125 130.808594 C 173.347656 114.914062 191.25 101.457031 191.429688 101.324219 L 190.964844 100.691406 C 190.78125 100.824219 172.921875 114.253906 176.554688 130.394531 C 175.0625 130.042969 173.628906 129.386719 172.257812 128.480469 L 175.425781 120.105469 L 174.691406 119.828125 L 171.589844 128.019531 C 168.9375 126.085938 166.535156 123.25 164.410156 120.015625 L 170.929688 112.285156 L 170.328125 111.777344 L 163.960938 119.324219 C 162.164062 116.496094 160.570312 113.40625 159.195312 110.375 L 164.96875 104.605469 L 164.410156 104.046875 L 158.851562 109.605469 C 157.492188 106.535156 156.355469 103.554688 155.46875 101.007812 C 165.335938 72.757812 212 75.75 212.417969 75.773438 L 256.484375 85.410156 C 256.664062 85.445312 274.226562 89.441406 286.265625 106.421875 C 289.539062 111.042969 293.15625 116.535156 297.011719 122.761719 C 295.390625 123.363281 293.570312 124.125 291.664062 125.078125 L 287.285156 120.699219 L 286.726562 121.253906 L 290.921875 125.449219 C 288.269531 126.828125 285.488281 128.574219 282.894531 130.75 L 277.902344 125.941406 L 277.359375 126.511719 L 282.289062 131.265625 C 279.808594 133.433594 277.539062 136.023438 275.738281 139.082031 L 270.492188 135.757812 L 270.070312 136.421875 L 275.34375 139.765625 C 273.898438 142.386719 272.808594 145.339844 272.238281 148.671875 C 269.425781 146.828125 267.519531 145.328125 266.566406 144.203125 L 261.554688 136.382812 L 260.890625 136.808594 L 265.796875 144.460938 Z M 272.3125 149.667969 L 272.828125 149.996094 L 272.917969 149.390625 C 275.292969 133.664062 289.488281 126.316406 297.738281 123.335938 L 298.195312 123.171875 L 297.941406 122.757812 C 293.976562 116.347656 290.265625 110.699219 286.910156 105.964844 C 274.683594 88.726562 256.832031 84.675781 256.652344 84.640625 L 212.527344 74.996094 C 212.050781 74.960938 164.644531 71.917969 154.675781 100.878906 L 154.632812 101.007812 L 154.679688 101.136719 C 158.277344 111.484375 165.917969 129.082031 176.757812 131.257812 L 195.878906 199.316406 L 198.953125 198.300781 L 228.515625 187.789062 L 228.460938 187.464844 C 228.441406 187.332031 226.285156 173.992188 227.589844 165.339844 C 228.703125 157.960938 232.863281 154.183594 236.382812 154.261719 C 237.484375 154.285156 238.359375 154.710938 239.058594 155.566406 C 242.089844 159.25 240.472656 169.359375 240.347656 170.101562 L 232.179688 189.625 L 285.996094 201.6875 L 285.75 201.011719 C 279.515625 183.753906 258.902344 165.441406 256.421875 163.28125 L 266.335938 145.121094 C 267.488281 146.320312 269.496094 147.84375 272.3125 149.667969 " fill-opacity="1" fill-rule="nonzero"/><path fill="#ddb592" d="M 270.984375 61.800781 C 269.878906 67.738281 262.828125 71.769531 260.71875 71.46875 C 260.71875 71.46875 255.890625 78.816406 252.5625 81.53125 L 258 86.265625 C 258 86.265625 245.214844 106.792969 233.742188 104.886719 L 231.734375 114.347656 C 231.734375 114.347656 219.046875 117.265625 215.117188 109.8125 L 218.445312 100.957031 C 218.445312 100.957031 207.066406 95.023438 212.5 75.390625 L 217.035156 74.386719 C 217.035156 74.386719 215.726562 71.667969 215.519531 65.730469 C 215.519531 65.730469 215.496094 65.21875 215.484375 64.328125 C 210.316406 61.699219 210.824219 51.238281 212.90625 50.027344 C 214.363281 49.175781 215.601562 50.449219 216.351562 51.597656 C 217.023438 47.011719 218.191406 41.910156 220.21875 37.28125 L 220.21875 37.746094 C 220.21875 37.746094 224.28125 32.8125 229.308594 30.292969 C 234.347656 27.777344 257.800781 31.707031 261.023438 42.476562 C 264.242188 53.246094 262.964844 60.296875 262.964844 60.296875 L 265.351562 58.585938 C 265.351562 58.585938 272.09375 55.867188 270.984375 61.800781 " fill-opacity="1" fill-rule="nonzero"/><path fill="#ffffff" d="M 231.929688 59.890625 C 231.929688 59.890625 230.222656 51.234375 223.679688 52.136719 C 217.132812 53.046875 224.582031 66.496094 231.929688 59.890625 Z M 242.5 61.902344 C 242.5 61.902344 247.933594 54.152344 254.074219 58.480469 C 260.21875 62.808594 248.542969 72.070312 242.5 61.902344 " fill-opacity="1" fill-rule="nonzero"/><path fill="#402813" d="M 258.421875 40.792969 C 259.324219 41.175781 260.003906 42.25 259.847656 43.035156 C 259.710938 43.753906 258.910156 43.921875 258.265625 43.933594 C 257.511719 43.945312 257.039062 43.75 256.792969 43.328125 C 256.464844 42.773438 256.535156 41.886719 256.777344 40.941406 C 257.296875 40.605469 257.859375 40.550781 258.421875 40.792969 Z M 233.238281 23.753906 C 226.929688 26.042969 222.851562 31.265625 220.21875 37.28125 L 219.148438 39.105469 C 219.148438 39.105469 223.726562 33.496094 228.472656 30.75 C 228.601562 30.859375 228.738281 30.976562 228.882812 31.09375 C 228.414062 32.472656 228.019531 34.40625 228.765625 35.890625 C 229.304688 36.96875 230.351562 37.632812 231.871094 37.867188 L 231.992188 37.085938 C 230.738281 36.894531 229.886719 36.375 229.46875 35.535156 C 228.894531 34.398438 229.160156 32.851562 229.535156 31.640625 C 231.574219 33.320312 234.308594 35.472656 236.664062 36.933594 C 236.3125 37.867188 236.121094 38.925781 236.398438 39.933594 C 236.765625 41.269531 237.875 42.257812 239.6875 42.875 L 239.941406 42.125 C 238.390625 41.601562 237.457031 40.792969 237.160156 39.726562 C 236.949219 38.953125 237.085938 38.113281 237.355469 37.347656 C 237.945312 37.691406 238.5 37.972656 239.003906 38.183594 C 239.210938 39.128906 239.785156 40.851562 241.273438 41.945312 C 242.140625 42.574219 243.183594 42.894531 244.382812 42.894531 C 244.929688 42.894531 245.511719 42.828125 246.128906 42.695312 L 245.964844 41.921875 C 244.242188 42.296875 242.816406 42.089844 241.742188 41.308594 C 240.679688 40.535156 240.152344 39.339844 239.898438 38.480469 C 243.300781 39.308594 252.148438 38.445312 257.113281 37.855469 C 256.769531 38.5625 256.359375 39.496094 256.085938 40.46875 C 255.8125 40.683594 255.539062 40.972656 255.273438 41.351562 C 254.542969 42.382812 254.339844 43.421875 254.671875 44.433594 C 255.519531 47.054688 259.707031 48.496094 259.886719 48.554688 L 260.136719 47.8125 C 260.097656 47.796875 256.148438 46.429688 255.417969 44.1875 C 255.183594 43.472656 255.308594 42.746094 255.796875 41.984375 C 255.75 42.640625 255.828125 43.246094 256.113281 43.726562 C 256.511719 44.40625 257.230469 44.738281 258.28125 44.722656 C 260.132812 44.683594 260.535156 43.636719 260.621094 43.191406 C 260.847656 42.03125 259.984375 40.601562 258.730469 40.066406 C 258.40625 39.925781 257.796875 39.75 257.089844 39.941406 C 257.371094 39.148438 257.726562 38.382812 258.03125 37.792969 C 259.445312 39.175781 260.503906 40.734375 261.023438 42.476562 C 264.242188 53.246094 262.964844 60.296875 262.964844 60.296875 L 265.351562 58.585938 C 274.710938 38.144531 252.664062 16.707031 233.238281 23.753906 " fill-opacity="1" fill-rule="nonzero"/><path fill="#402813" d="M 239.332031 82.132812 L 239.09375 81.382812 C 234.089844 82.976562 230.761719 81.417969 230.726562 81.402344 L 230.382812 82.109375 C 230.480469 82.160156 232.039062 82.894531 234.628906 82.894531 C 235.945312 82.894531 237.535156 82.707031 239.332031 82.132812 Z M 168.15625 125.164062 L 162.585938 123.90625 L 162.414062 124.675781 L 167.984375 125.933594 Z M 304.097656 151.878906 L 303.308594 151.878906 L 303.308594 156.660156 L 304.097656 156.660156 Z M 251.738281 82.527344 L 250.28125 86.117188 L 251.015625 86.414062 L 253.40625 80.507812 L 252.347656 81.203125 C 252.21875 81.289062 239.191406 89.785156 233.519531 88.628906 C 227.390625 87.375 222.109375 82.652344 217.375 74.191406 L 216.496094 72.613281 L 216.953125 78.308594 L 217.742188 78.246094 L 217.566406 76.09375 C 222.195312 83.816406 227.375 88.175781 233.363281 89.402344 C 233.769531 89.484375 234.207031 89.523438 234.671875 89.523438 C 240.007812 89.523438 248.726562 84.398438 251.738281 82.527344 Z M 227.046875 64.570312 C 226.882812 64.570312 226.746094 64.707031 226.746094 64.875 C 226.746094 65.042969 226.882812 65.171875 227.046875 65.171875 C 227.214844 65.171875 227.351562 65.042969 227.351562 64.875 C 227.351562 64.707031 227.214844 64.570312 227.046875 64.570312 Z M 223.425781 64.570312 C 223.203125 64.570312 223.023438 64.75 223.023438 64.972656 C 223.023438 65.195312 223.203125 65.375 223.425781 65.375 C 223.648438 65.375 223.828125 65.195312 223.828125 64.972656 C 223.828125 64.75 223.648438 64.570312 223.425781 64.570312 Z M 220.691406 60.757812 C 220.429688 60.757812 220.21875 60.96875 220.21875 61.226562 C 220.21875 61.488281 220.429688 61.699219 220.691406 61.699219 C 220.949219 61.699219 221.160156 61.488281 221.160156 61.226562 C 221.160156 60.96875 220.949219 60.757812 220.691406 60.757812 Z M 251.730469 68.558594 C 251.523438 68.558594 251.359375 68.726562 251.359375 68.929688 C 251.359375 69.132812 251.523438 69.300781 251.730469 69.300781 C 251.933594 69.300781 252.097656 69.132812 252.097656 68.929688 C 252.097656 68.726562 251.933594 68.558594 251.730469 68.558594 Z M 248.402344 70.710938 C 248.144531 70.710938 247.933594 70.921875 247.933594 71.175781 C 247.933594 71.433594 248.144531 71.640625 248.402344 71.640625 C 248.660156 71.640625 248.867188 71.433594 248.867188 71.175781 C 248.867188 70.921875 248.660156 70.710938 248.402344 70.710938 Z M 245.132812 68.042969 C 244.84375 68.042969 244.613281 68.273438 244.613281 68.558594 C 244.613281 68.84375 244.84375 69.074219 245.132812 69.074219 C 245.414062 69.074219 245.644531 68.84375 245.644531 68.558594 C 245.644531 68.273438 245.414062 68.042969 245.132812 68.042969 Z M 232.71875 49.457031 C 232.71875 49.457031 232.667969 46.433594 231.613281 45.730469 C 230.554688 45.027344 224.714844 41.703125 223.960938 43.066406 C 223.207031 44.421875 223.960938 46.789062 224.96875 46.9375 C 225.976562 47.089844 232.945312 51.390625 232.71875 49.457031 Z M 247.386719 48.585938 C 246.820312 48.660156 246.285156 48.871094 245.820312 49.203125 C 244.710938 50 242.902344 51.503906 244.238281 51.988281 C 246.09375 52.660156 253.742188 52.457031 254.679688 51.285156 C 255.597656 50.136719 259.214844 46.96875 247.386719 48.585938 Z M 216.050781 57.667969 C 215.980469 54.332031 213.691406 51.902344 213.59375 51.800781 L 213.023438 52.34375 C 213.046875 52.371094 215.199219 54.652344 215.265625 57.683594 Z M 269.515625 61.15625 L 269.570312 60.367188 C 269.523438 60.363281 264.78125 60.085938 262.609375 64.765625 L 263.324219 65.097656 C 265.261719 60.917969 269.339844 61.136719 269.515625 61.15625 Z M 244.984375 77.886719 C 244.71875 77.871094 243.699219 77.175781 242.757812 76.367188 L 242.246094 76.96875 C 242.449219 77.144531 242.761719 77.402344 243.105469 77.660156 C 240.59375 78.496094 232.53125 80.59375 226.023438 75.878906 L 225.5625 76.515625 C 228.878906 78.921875 232.570312 79.636719 235.789062 79.636719 C 239.730469 79.636719 242.945312 78.570312 243.898438 78.21875 C 244.320312 78.480469 244.710938 78.671875 244.984375 78.671875 Z M 237.929688 72.832031 L 234.707031 71.023438 L 234.320312 71.710938 L 237.542969 73.519531 Z M 231.371094 71.769531 C 230.726562 71.363281 230.398438 70.890625 230.375 70.328125 C 230.316406 68.96875 232.0625 67.328125 232.742188 66.8125 L 232.261719 66.183594 C 232.148438 66.269531 229.5 68.3125 229.589844 70.363281 C 229.625 71.191406 230.082031 71.886719 230.949219 72.4375 Z M 226.261719 51.703125 C 221.160156 50.828125 220.21875 50.027344 220.21875 50.027344 C 220.21875 50.027344 220.742188 53.574219 221.488281 53.542969 C 221.488281 53.542969 224.449219 52.257812 227.132812 53.113281 C 228.195312 53.449219 229.167969 54.585938 229.957031 55.832031 C 229.921875 55.832031 224.867188 55.742188 224.828125 60.875 C 224.828125 60.875 228.355469 63.714844 231.929688 59.890625 C 231.929688 59.890625 231.359375 52.574219 226.261719 51.703125 Z M 258.066406 57.945312 C 258.066406 57.945312 257.464844 61.167969 256.121094 61.230469 C 256.121094 61.230469 256.007812 60.917969 255.75 60.496094 L 256.121094 61.230469 C 254.445312 68.261719 248.328125 66.398438 248.328125 66.398438 C 248.542969 59.09375 253.945312 59.480469 255.109375 59.652344 C 254.234375 58.691406 252.714844 57.734375 250.285156 58.210938 C 245.855469 59.085938 242.5 61.902344 242.5 61.902344 C 242.5 61.902344 244.648438 57.714844 248.808594 56.890625 C 252.96875 56.066406 254.511719 58.617188 258.066406 57.945312 " fill-opacity="1" fill-rule="nonzero"/><path fill="#402813" d="M 211.085938 79.632812 L 205.683594 78.875 L 205.570312 79.652344 L 210.976562 80.414062 Z M 214.125 98.019531 L 209.058594 101.542969 L 209.507812 102.191406 L 214.574219 98.667969 Z M 261.03125 96.269531 L 261.414062 95.582031 L 254.648438 91.765625 C 256.800781 88.953125 258.167969 86.742188 258.335938 86.472656 L 257.660156 86.058594 C 257.535156 86.269531 244.855469 106.734375 233.820312 104.5 L 233.433594 104.421875 L 228.625 128.128906 L 229.398438 128.285156 L 234.050781 105.339844 C 235.765625 105.613281 237.492188 105.394531 239.199219 104.839844 L 240.691406 110.027344 L 241.449219 109.808594 L 239.941406 104.570312 C 241.84375 103.835938 243.707031 102.703125 245.472656 101.335938 L 249.125 106.425781 L 249.765625 105.964844 L 246.09375 100.847656 C 247.550781 99.660156 248.941406 98.34375 250.222656 96.992188 L 254.695312 101.734375 L 255.269531 101.191406 L 250.757812 96.414062 C 252.015625 95.050781 253.164062 93.671875 254.164062 92.398438 Z M 218.625 100.605469 L 218.9375 100.765625 L 210.621094 123.105469 L 209.882812 122.828125 L 217.957031 101.148438 C 214.496094 99.28125 212.558594 96.324219 211.539062 93.070312 L 206.089844 94.285156 L 205.917969 93.519531 L 211.316406 92.3125 C 210.816406 90.4375 210.605469 88.492188 210.570312 86.609375 L 204.910156 85.949219 L 204.996094 85.167969 L 210.5625 85.8125 C 210.589844 80.195312 212.09375 75.367188 212.125 75.265625 L 212.875 75.507812 C 212.816406 75.699219 206.921875 94.660156 218.625 100.605469 " fill-opacity="1" fill-rule="nonzero"/><path fill="#000000" d="M 218.046875 76.941406 C 218.046875 78.898438 216.460938 80.484375 214.5 80.484375 C 212.542969 80.484375 210.957031 78.898438 210.957031 76.941406 C 210.957031 74.984375 212.542969 73.398438 214.5 73.398438 C 216.460938 73.398438 218.046875 74.984375 218.046875 76.941406 Z M 220.929688 84.335938 C 220.929688 86.292969 219.34375 87.878906 217.386719 87.878906 C 215.429688 87.878906 213.84375 86.292969 213.84375 84.335938 C 213.84375 82.378906 215.429688 80.792969 217.386719 80.792969 C 219.34375 80.792969 220.929688 82.378906 220.929688 84.335938 Z M 225.074219 90.792969 C 225.074219 92.75 223.488281 94.335938 221.53125 94.335938 C 219.574219 94.335938 217.988281 92.75 217.988281 90.792969 C 217.988281 88.835938 219.574219 87.25 221.53125 87.25 C 223.488281 87.25 225.074219 88.835938 225.074219 90.792969 Z M 255.023438 87.492188 C 255.023438 89.449219 253.433594 91.035156 251.480469 91.035156 C 249.519531 91.035156 247.933594 89.449219 247.933594 87.492188 C 247.933594 85.535156 249.519531 83.949219 251.480469 83.949219 C 253.433594 83.949219 255.023438 85.535156 255.023438 87.492188 Z M 248.527344 92.613281 C 248.527344 94.570312 246.941406 96.15625 244.984375 96.15625 C 243.027344 96.15625 241.441406 94.570312 241.441406 92.613281 C 241.441406 90.65625 243.027344 89.070312 244.984375 89.070312 C 246.941406 89.070312 248.527344 90.65625 248.527344 92.613281 Z M 241.070312 95.125 C 241.070312 97.082031 239.484375 98.667969 237.527344 98.667969 C 235.570312 98.667969 233.980469 97.082031 233.980469 95.125 C 233.980469 93.167969 235.570312 91.582031 237.527344 91.582031 C 239.484375 91.582031 241.070312 93.167969 241.070312 95.125 Z M 229.15625 91.9375 C 227.199219 91.9375 225.613281 93.523438 225.613281 95.476562 C 225.613281 97.4375 227.199219 99.023438 229.15625 99.023438 C 231.109375 99.023438 232.695312 97.4375 232.695312 95.476562 C 232.695312 93.523438 231.109375 91.9375 229.15625 91.9375 Z M 266.375 58.253906 L 264.765625 59.003906 C 267.769531 52.863281 267.378906 44.082031 263.949219 37.320312 C 260.207031 29.941406 253.476562 25.039062 244.988281 23.519531 C 226.746094 20.246094 218.964844 40.5 218.898438 40.691406 L 218.609375 38.785156 C 218.679688 38.578125 225.71875 18.464844 245.269531 21.964844 C 254.25 23.578125 261.386719 28.777344 265.355469 36.605469 C 269.0625 43.910156 269.640625 51.582031 266.375 58.253906 " fill-opacity="1" fill-rule="nonzero"/><path fill="#402813" d="M 346.679688 251.058594 L 267.664062 271.535156 L 205.765625 287.574219 L 186.503906 292.5625 L 162.613281 298.753906 L 24.96875 334.425781 L 24.773438 333.671875 L 161.972656 298.109375 L 185.964844 291.894531 L 205.40625 286.855469 L 267.664062 270.722656 L 346.480469 250.292969 L 346.679688 251.058594 " fill-opacity="1" fill-rule="nonzero"/><path fill="#402813" d="M 155.730469 300.28125 C 155.507812 299.871094 133.671875 258.894531 143.277344 229.546875 C 152.910156 200.113281 203.238281 195.53125 203.746094 195.488281 L 203.8125 196.273438 C 203.308594 196.316406 153.5 200.855469 144.027344 229.792969 C 134.527344 258.820312 156.203125 299.5 156.425781 299.90625 L 155.730469 300.28125 " fill-opacity="1" fill-rule="nonzero"/><path fill="#402813" d="M 239.210938 132.230469 C 236.855469 126.644531 232.855469 126.621094 230.339844 127.289062 C 231.691406 126.308594 233.558594 125.421875 235.410156 126.152344 C 239.4375 127.738281 243.664062 136.65625 242.910156 168.035156 C 242.121094 152.257812 240.917969 136.277344 239.210938 132.230469 Z M 238.949219 168.71875 C 238.949219 171.046875 237.039062 172.945312 234.714844 172.945312 C 234.507812 172.945312 234.304688 172.929688 234.109375 172.898438 C 232.070312 172.605469 229.078125 171.460938 229.078125 169.34375 L 229.617188 164.640625 C 229.617188 162.320312 232.171875 159.140625 234.488281 159.140625 C 235.292969 159.140625 236.277344 160.488281 236.921875 160.886719 C 237.207031 161.054688 237.464844 161.261719 237.703125 161.496094 C 238.476562 162.265625 238.949219 163.324219 238.949219 164.484375 Z M 226.054688 127.207031 C 219.460938 124.035156 213.75 122.324219 208.824219 121.824219 C 216.828125 121.78125 223.140625 125.246094 226.054688 127.207031 Z M 244.179688 203.230469 C 244.179688 203.230469 243.925781 191.527344 243.34375 177.558594 C 244.90625 145.570312 242.339844 128.035156 235.695312 125.421875 C 232.382812 124.113281 229.230469 127.011719 228.15625 128.160156 C 228.101562 128.1875 228.074219 128.203125 228.074219 128.203125 L 228.328125 127.910156 C 228.199219 127.792969 216.691406 118.003906 201.75 121.972656 C 165.515625 127.917969 184.1875 215.710938 184.1875 215.710938 L 206.78125 211.007812 C 202.800781 204.25 203.0625 197.25 203.070312 197.128906 L 203.980469 196.652344 C 203.976562 196.773438 203.667969 204.003906 207.738281 210.8125 L 240.488281 203.996094 C 241.027344 197.988281 240.488281 192.792969 240.488281 192.792969 L 241.214844 192.980469 C 241.261719 193.371094 241.785156 198.171875 241.328125 203.824219 L 244.179688 203.230469 " fill-opacity="1" fill-rule="nonzero"/><path fill="#ffffff" d="M 192.875 207.683594 C 192.785156 207.382812 184.058594 177.273438 185.25 153.589844 C 186.425781 130.242188 204.859375 130.195312 205.621094 130.210938 L 205.628906 129.421875 C 205.628906 129.421875 205.625 129.421875 205.621094 129.421875 C 205.027344 129.421875 185.664062 129.671875 184.464844 153.550781 C 183.265625 177.367188 192.027344 207.601562 192.117188 207.90625 Z M 199.804688 203.984375 L 193.667969 177.28125 L 194.433594 177.105469 L 200.574219 203.808594 L 199.804688 203.984375 " fill-opacity="1" fill-rule="nonzero"/><g clip-path="url(#5255b6604b)"><path fill="#ffffff" d="M 201.296875 332.65625 C 201.296875 332.65625 195.273438 336.019531 201.296875 344.011719 C 207.324219 351.996094 225.910156 360.140625 232.730469 354.371094 C 239.554688 348.605469 234.382812 330.617188 217.160156 327.3125 C 199.941406 324.003906 201.296875 332.65625 201.296875 332.65625 Z M 330.679688 266.042969 L 321.785156 288.601562 L 238.71875 311.742188 C 234.265625 313.957031 232.957031 311.476562 232.957031 311.476562 C 232.957031 311.476562 223.523438 291.902344 221.992188 289.777344 C 220.464844 287.65625 223.507812 286.304688 223.507812 286.304688 L 256.289062 277.078125 L 315.527344 262.347656 L 330.679688 266.042969 " fill-opacity="1" fill-rule="nonzero"/></g><g clip-path="url(#078f1aafae)"><path fill="#402813" d="M 232.480469 354.074219 C 232.28125 354.238281 232.066406 354.390625 231.84375 354.53125 C 231.214844 352.28125 228.875 344.636719 225.585938 343.148438 C 229.371094 341.617188 233.085938 341.714844 234.285156 341.796875 C 234.453125 342.265625 234.601562 342.726562 234.722656 343.179688 C 235.910156 347.722656 235.050781 351.898438 232.480469 354.074219 Z M 224.121094 355.796875 C 221.746094 355.535156 219.167969 354.851562 216.597656 353.882812 C 217.957031 348.371094 221.101562 345.332031 224.402344 343.679688 C 224.425781 343.679688 224.445312 343.679688 224.46875 343.679688 C 227.4375 343.679688 230.199219 351.503906 231.136719 354.929688 C 229.359375 355.8125 226.972656 356.117188 224.121094 355.796875 Z M 201.613281 343.773438 C 199.523438 341 198.6875 338.515625 199.128906 336.386719 C 199.609375 334.089844 201.472656 333.007812 201.492188 333 L 201.730469 332.863281 L 201.6875 332.597656 C 201.683594 332.574219 201.402344 330.617188 203.046875 329.03125 C 204.132812 327.980469 206.222656 326.957031 210.242188 326.957031 C 212.089844 326.957031 214.339844 327.171875 217.085938 327.699219 C 226.375 329.484375 231.777344 335.566406 233.988281 341 C 232.335938 340.945312 228.300781 341.042969 224.382812 342.894531 C 224.378906 342.894531 224.375 342.894531 224.367188 342.894531 L 224.367188 342.898438 C 220.796875 344.59375 217.332031 347.753906 215.863281 353.597656 C 210.074219 351.285156 204.46875 347.558594 201.613281 343.773438 Z M 235.484375 342.980469 C 233.886719 336.882812 228.152344 329.023438 217.238281 326.925781 C 209.960938 325.527344 204.996094 326.042969 202.496094 328.460938 C 200.921875 329.984375 200.847656 331.78125 200.886719 332.453125 C 200.3125 332.839844 198.820312 334.039062 198.359375 336.210938 C 197.863281 338.574219 198.746094 341.277344 200.984375 344.25 C 205.335938 350.019531 215.890625 355.667969 224.03125 356.582031 C 224.804688 356.667969 225.546875 356.710938 226.253906 356.710938 C 229.09375 356.710938 231.398438 356.019531 232.988281 354.675781 C 235.792969 352.300781 236.75 347.820312 235.484375 342.980469 Z M 314.496094 267.597656 L 309.402344 269.019531 L 308.039062 266.375 L 312.679688 265.074219 C 312.925781 265.003906 313.246094 265.167969 313.386719 265.445312 Z M 316.277344 271.066406 L 311.1875 272.496094 L 309.757812 269.714844 L 314.847656 268.285156 Z M 317.976562 274.359375 L 312.882812 275.785156 L 311.542969 273.183594 L 316.636719 271.757812 Z M 319.667969 277.65625 L 314.574219 279.082031 L 313.238281 276.480469 L 318.328125 275.054688 Z M 320.996094 280.234375 C 321.136719 280.507812 321.046875 280.789062 320.796875 280.859375 L 316.160156 282.15625 L 314.933594 279.777344 L 320.023438 278.347656 Z M 308.773438 269.199219 L 305.6875 270.0625 L 304.324219 267.414062 L 307.40625 266.550781 Z M 310.554688 272.667969 L 307.472656 273.53125 L 306.042969 270.753906 L 309.125 269.886719 Z M 312.253906 275.964844 L 309.167969 276.828125 L 307.828125 274.226562 L 310.914062 273.363281 Z M 313.945312 279.257812 L 310.859375 280.125 L 309.519531 277.519531 L 312.605469 276.65625 Z M 315.527344 282.335938 L 312.441406 283.199219 L 311.214844 280.8125 L 314.300781 279.953125 Z M 305.054688 270.238281 L 301.824219 271.140625 L 300.460938 268.496094 L 303.691406 267.589844 Z M 306.839844 273.710938 L 303.609375 274.617188 L 302.179688 271.835938 L 305.410156 270.929688 Z M 308.535156 277.003906 L 305.304688 277.910156 L 303.964844 275.304688 L 307.199219 274.402344 Z M 310.230469 280.300781 L 307 281.203125 L 305.660156 278.601562 L 308.890625 277.695312 Z M 311.8125 283.375 L 308.578125 284.277344 L 307.355469 281.894531 L 310.585938 280.992188 Z M 301.191406 271.320312 L 298.214844 272.152344 L 296.851562 269.503906 L 299.832031 268.671875 Z M 302.980469 274.792969 L 300 275.625 L 298.570312 272.84375 L 301.550781 272.011719 Z M 304.671875 278.085938 L 301.695312 278.917969 L 300.359375 276.316406 L 303.332031 275.480469 Z M 306.367188 281.382812 L 303.390625 282.214844 L 302.050781 279.613281 L 305.03125 278.777344 Z M 307.949219 284.453125 L 304.972656 285.289062 L 303.746094 282.90625 L 306.722656 282.074219 Z M 297.585938 272.328125 L 294.753906 273.121094 L 293.394531 270.472656 L 296.222656 269.683594 Z M 299.371094 275.800781 L 296.542969 276.59375 L 295.113281 273.8125 L 297.941406 273.019531 Z M 301.066406 279.09375 L 298.234375 279.886719 L 296.894531 277.285156 L 299.726562 276.492188 Z M 302.761719 282.390625 L 299.929688 283.183594 L 298.589844 280.578125 L 301.421875 279.789062 Z M 304.339844 285.464844 L 301.511719 286.257812 L 300.285156 283.875 L 303.117188 283.082031 Z M 294.125 273.296875 L 291.332031 274.082031 L 289.972656 271.433594 L 292.761719 270.648438 Z M 295.910156 276.769531 L 293.121094 277.550781 L 291.691406 274.769531 L 294.480469 273.992188 Z M 297.605469 280.066406 L 294.8125 280.84375 L 293.472656 278.242188 L 296.265625 277.460938 Z M 299.296875 283.359375 L 296.507812 284.144531 L 295.171875 281.539062 L 297.960938 280.753906 Z M 300.882812 286.433594 L 298.089844 287.214844 L 296.863281 284.832031 L 299.65625 284.050781 Z M 290.703125 274.257812 L 287.511719 275.148438 L 286.148438 272.5 L 289.339844 271.605469 Z M 292.488281 277.726562 L 289.296875 278.621094 L 287.867188 275.839844 L 291.058594 274.949219 Z M 294.183594 281.023438 L 290.992188 281.917969 L 289.652344 279.3125 L 292.84375 278.421875 Z M 295.878906 284.320312 L 292.683594 285.210938 L 291.347656 282.605469 L 294.539062 281.714844 Z M 297.460938 287.394531 L 294.269531 288.285156 L 293.042969 285.902344 L 296.234375 285.007812 Z M 286.882812 275.324219 L 283.726562 276.207031 L 282.367188 273.558594 L 285.519531 272.679688 Z M 288.664062 278.796875 L 285.515625 279.679688 L 284.085938 276.898438 L 287.238281 276.019531 Z M 290.359375 282.09375 L 287.207031 282.976562 L 285.871094 280.375 L 289.023438 279.488281 Z M 292.058594 285.386719 L 288.90625 286.273438 L 287.566406 283.664062 L 290.71875 282.785156 Z M 293.636719 288.460938 L 290.484375 289.34375 L 289.261719 286.960938 L 292.410156 286.082031 Z M 283.097656 276.382812 L 258.433594 283.289062 L 257.070312 280.640625 L 281.738281 273.734375 Z M 284.882812 279.855469 L 281.730469 280.738281 L 280.304688 277.957031 L 283.453125 277.078125 Z M 286.578125 283.152344 L 283.425781 284.03125 L 282.089844 281.429688 L 285.242188 280.546875 Z M 288.273438 286.445312 L 285.125 287.332031 L 283.785156 284.726562 L 286.933594 283.84375 Z M 289.855469 289.519531 L 286.703125 290.402344 L 285.476562 288.019531 L 288.628906 287.140625 Z M 281.101562 280.914062 L 278.085938 281.757812 L 276.652344 278.980469 L 279.671875 278.136719 Z M 282.792969 284.210938 L 279.78125 285.054688 L 278.441406 282.453125 L 281.457031 281.605469 Z M 284.492188 287.507812 L 281.472656 288.351562 L 280.132812 285.746094 L 283.152344 284.902344 Z M 286.070312 290.582031 L 283.054688 291.425781 L 281.832031 289.042969 L 284.847656 288.195312 Z M 277.453125 281.9375 L 274.597656 282.734375 L 273.167969 279.957031 L 276.023438 279.15625 Z M 279.148438 285.234375 L 276.292969 286.03125 L 274.953125 283.429688 L 277.808594 282.628906 Z M 280.84375 288.527344 L 277.988281 289.328125 L 276.648438 286.722656 L 279.503906 285.921875 Z M 282.425781 291.601562 L 279.566406 292.402344 L 278.34375 290.019531 L 281.199219 289.21875 Z M 273.96875 282.910156 L 271.109375 283.710938 L 269.679688 280.933594 L 272.539062 280.132812 Z M 275.660156 286.207031 L 272.804688 287.007812 L 271.464844 284.40625 L 274.320312 283.605469 Z M 277.355469 289.503906 L 274.5 290.304688 L 273.160156 287.699219 L 276.019531 286.898438 Z M 278.9375 292.578125 L 276.082031 293.378906 L 274.855469 290.992188 L 277.710938 290.195312 Z M 270.476562 283.886719 L 267.503906 284.722656 L 266.070312 281.945312 L 269.046875 281.109375 Z M 272.175781 287.183594 L 269.195312 288.019531 L 267.855469 285.414062 L 270.835938 284.582031 Z M 273.867188 290.480469 L 270.890625 291.3125 L 269.554688 288.710938 L 272.527344 287.875 Z M 275.449219 293.554688 L 272.472656 294.386719 L 271.246094 292.003906 L 274.222656 291.171875 Z M 266.871094 284.902344 L 264.125 285.667969 L 262.691406 282.890625 L 265.441406 282.121094 Z M 268.566406 288.195312 L 265.816406 288.964844 L 264.476562 286.359375 L 267.226562 285.589844 Z M 270.261719 291.488281 L 267.511719 292.257812 L 266.171875 289.652344 L 268.921875 288.886719 Z M 271.84375 294.5625 L 269.089844 295.332031 L 267.867188 292.953125 L 270.617188 292.179688 Z M 263.492188 285.847656 L 260.21875 286.761719 L 258.789062 283.984375 L 262.0625 283.066406 Z M 265.1875 289.140625 L 261.910156 290.058594 L 260.574219 287.453125 L 263.847656 286.535156 Z M 266.878906 292.433594 L 263.609375 293.351562 L 262.269531 290.746094 L 265.542969 289.832031 Z M 268.464844 295.507812 L 265.1875 296.425781 L 263.964844 294.042969 L 267.238281 293.128906 Z M 257.804688 283.464844 L 254.625 284.355469 L 253.261719 281.710938 L 256.441406 280.820312 Z M 259.589844 286.941406 L 256.410156 287.828125 L 254.980469 285.046875 L 258.15625 284.160156 Z M 261.285156 290.234375 L 258.105469 291.121094 L 256.765625 288.519531 L 259.945312 287.628906 Z M 262.976562 293.527344 L 259.800781 294.417969 L 258.460938 291.8125 L 261.636719 290.925781 Z M 264.5625 296.601562 L 261.378906 297.492188 L 260.15625 295.109375 L 263.335938 294.21875 Z M 253.992188 284.535156 L 250.761719 285.4375 L 249.398438 282.792969 L 252.632812 281.886719 Z M 255.78125 288.003906 L 252.546875 288.910156 L 251.117188 286.128906 L 254.347656 285.222656 Z M 257.472656 291.300781 L 254.242188 292.203125 L 252.902344 289.601562 L 256.132812 288.695312 Z M 259.167969 294.59375 L 255.9375 295.5 L 254.597656 292.898438 L 257.828125 291.992188 Z M 260.746094 297.667969 L 257.515625 298.574219 L 256.289062 296.1875 L 259.523438 295.285156 Z M 250.128906 285.617188 L 247.21875 286.429688 L 245.859375 283.78125 L 248.769531 282.964844 Z M 251.914062 289.085938 L 249.007812 289.898438 L 247.574219 287.121094 L 250.484375 286.304688 Z M 253.609375 292.378906 L 250.699219 293.195312 L 249.359375 290.59375 L 252.269531 289.777344 Z M 255.304688 295.679688 L 252.394531 296.492188 L 251.058594 293.886719 L 253.964844 293.074219 Z M 256.886719 298.75 L 253.976562 299.566406 L 252.75 297.183594 L 255.660156 296.367188 Z M 246.589844 286.605469 L 244.214844 287.269531 L 242.851562 284.621094 L 245.226562 283.957031 Z M 248.375 290.078125 L 246 290.742188 L 244.570312 287.960938 L 246.945312 287.296875 Z M 250.070312 293.371094 L 247.699219 294.035156 L 246.359375 291.433594 L 248.730469 290.769531 Z M 251.765625 296.667969 L 249.390625 297.332031 L 248.050781 294.730469 L 250.425781 294.0625 Z M 253.347656 299.742188 L 250.972656 300.40625 L 249.746094 298.023438 L 252.121094 297.359375 Z M 243.585938 287.445312 L 240.996094 288.171875 L 239.632812 285.523438 L 242.222656 284.800781 Z M 245.371094 290.917969 L 242.78125 291.644531 L 241.351562 288.863281 L 243.941406 288.136719 Z M 247.066406 294.210938 L 244.476562 294.9375 L 243.140625 292.332031 L 245.726562 291.609375 Z M 248.761719 297.507812 L 246.167969 298.234375 L 244.832031 295.628906 L 247.421875 294.90625 Z M 250.339844 300.582031 L 247.753906 301.308594 L 246.527344 298.925781 L 249.117188 298.199219 Z M 240.367188 288.347656 L 237.5625 289.132812 L 236.203125 286.484375 L 239.003906 285.699219 Z M 242.152344 291.820312 L 239.351562 292.605469 L 237.917969 289.824219 L 240.722656 289.039062 Z M 243.847656 295.113281 L 241.042969 295.898438 L 239.703125 293.292969 L 242.507812 292.511719 Z M 245.542969 298.410156 L 242.738281 299.195312 L 241.398438 296.589844 L 244.203125 295.808594 Z M 247.121094 301.484375 L 244.320312 302.269531 L 243.09375 299.886719 L 245.894531 299.101562 Z M 236.933594 289.308594 L 233.863281 290.167969 L 232.496094 287.523438 L 235.570312 286.660156 Z M 238.71875 292.78125 L 235.644531 293.640625 L 234.214844 290.859375 L 237.289062 290 Z M 240.414062 296.074219 L 237.34375 296.933594 L 236.003906 294.332031 L 239.074219 293.472656 Z M 242.105469 299.371094 L 239.035156 300.230469 L 237.695312 297.628906 L 240.765625 296.765625 Z M 243.691406 302.445312 L 240.617188 303.304688 L 239.390625 300.921875 L 242.464844 300.0625 Z M 233.230469 290.347656 L 230.105469 291.222656 L 228.742188 288.574219 L 231.867188 287.699219 Z M 235.015625 293.816406 L 231.890625 294.691406 L 230.460938 291.910156 L 233.585938 291.035156 Z M 236.710938 297.109375 L 233.585938 297.984375 L 232.246094 295.386719 L 235.371094 294.507812 Z M 238.40625 300.410156 L 235.28125 301.28125 L 233.941406 298.679688 L 237.066406 297.804688 Z M 239.984375 303.480469 L 236.863281 304.355469 L 235.636719 301.972656 L 238.761719 301.097656 Z M 229.476562 291.398438 L 226.492188 292.230469 L 225.386719 290.082031 C 225.246094 289.808594 225.332031 289.527344 225.585938 289.457031 L 228.113281 288.75 Z M 231.257812 294.867188 L 228.277344 295.703125 L 226.847656 292.921875 L 229.828125 292.089844 Z M 232.957031 298.164062 L 229.972656 299 L 228.632812 296.394531 L 231.617188 295.5625 Z M 234.648438 301.460938 L 231.667969 302.292969 L 230.328125 299.691406 L 233.308594 298.855469 Z M 236.230469 304.535156 L 233.703125 305.242188 C 233.453125 305.308594 233.132812 305.144531 232.992188 304.867188 L 232.023438 302.984375 L 235.003906 302.148438 Z M 312.324219 264.382812 L 225.226562 288.765625 C 224.628906 288.933594 224.417969 289.605469 224.757812 290.257812 L 232.363281 305.046875 C 232.699219 305.703125 233.460938 306.097656 234.058594 305.933594 L 321.152344 281.550781 C 321.75 281.382812 321.960938 280.710938 321.625 280.054688 L 314.019531 265.269531 C 313.683594 264.613281 312.921875 264.214844 312.324219 264.382812 Z M 323.324219 284.769531 C 323.546875 285.195312 323.410156 285.632812 323.019531 285.746094 L 318.636719 286.972656 L 317.414062 284.601562 L 321.796875 283.375 C 322.1875 283.265625 322.683594 283.527344 322.90625 283.953125 Z M 318.003906 287.144531 L 314.917969 288.011719 L 313.699219 285.644531 L 316.785156 284.777344 Z M 314.289062 288.1875 L 311.054688 289.09375 L 309.839844 286.722656 L 313.070312 285.820312 Z M 310.421875 289.269531 L 307.449219 290.101562 L 306.226562 287.734375 L 309.207031 286.898438 Z M 306.816406 290.277344 L 303.984375 291.074219 L 302.769531 288.703125 L 305.601562 287.910156 Z M 303.359375 291.25 L 300.566406 292.03125 L 299.347656 289.664062 L 302.136719 288.878906 Z M 299.9375 292.207031 L 296.746094 293.101562 L 295.523438 290.730469 L 298.714844 289.839844 Z M 296.113281 293.277344 L 292.960938 294.160156 L 291.742188 291.789062 L 294.894531 290.90625 Z M 292.332031 294.335938 L 289.179688 295.214844 L 287.960938 292.851562 L 291.109375 291.964844 Z M 288.546875 295.394531 L 285.53125 296.238281 L 284.3125 293.871094 L 287.328125 293.027344 Z M 284.898438 296.414062 L 282.042969 297.214844 L 280.828125 294.847656 L 283.683594 294.046875 Z M 281.414062 297.390625 L 278.558594 298.191406 L 277.335938 295.824219 L 280.195312 295.023438 Z M 277.925781 298.367188 L 274.945312 299.203125 L 273.730469 296.832031 L 276.707031 296 Z M 274.320312 299.378906 L 271.566406 300.148438 L 270.347656 297.777344 L 273.097656 297.007812 Z M 270.9375 300.324219 L 267.664062 301.242188 L 266.445312 298.871094 L 269.71875 297.953125 Z M 267.035156 301.417969 L 263.855469 302.304688 L 262.636719 299.9375 L 265.816406 299.046875 Z M 263.222656 302.480469 L 259.992188 303.386719 L 258.777344 301.019531 L 262.007812 300.113281 Z M 259.363281 303.5625 L 256.449219 304.378906 L 255.234375 302.011719 L 258.144531 301.199219 Z M 255.824219 304.554688 L 253.449219 305.21875 L 252.226562 302.851562 L 254.601562 302.1875 Z M 252.816406 305.394531 L 250.230469 306.121094 L 249.007812 303.753906 L 251.601562 303.027344 Z M 249.597656 306.296875 L 246.792969 307.082031 L 245.574219 304.714844 L 248.382812 303.929688 Z M 246.164062 307.257812 L 243.09375 308.117188 L 241.875 305.75 L 244.945312 304.890625 Z M 242.460938 308.296875 L 239.339844 309.167969 L 238.117188 306.800781 L 241.246094 305.929688 Z M 238.707031 309.347656 L 236.433594 309.980469 C 236.042969 310.09375 235.546875 309.835938 235.324219 309.40625 L 234.90625 308.589844 C 234.6875 308.160156 234.824219 307.722656 235.214844 307.613281 L 237.488281 306.980469 Z M 321.445312 282.683594 L 234.859375 306.921875 C 234.121094 307.128906 233.859375 307.957031 234.273438 308.765625 L 234.695312 309.582031 C 235.113281 310.390625 236.046875 310.882812 236.789062 310.675781 L 323.371094 286.433594 C 324.109375 286.226562 324.371094 285.398438 323.957031 284.59375 L 323.539062 283.777344 C 323.121094 282.964844 322.183594 282.476562 321.445312 282.683594 Z M 326.074219 284.675781 C 326.644531 285.78125 326.285156 286.914062 325.277344 287.191406 L 236.046875 312.175781 C 235.035156 312.457031 233.753906 311.785156 233.1875 310.679688 L 222.265625 289.445312 C 221.695312 288.34375 222.050781 287.214844 223.0625 286.933594 L 312.296875 261.949219 C 313.304688 261.671875 314.585938 262.339844 315.15625 263.445312 Z M 311.9375 261.257812 L 222.707031 286.242188 C 221.351562 286.621094 220.871094 288.136719 221.632812 289.625 L 232.554688 310.859375 C 233.320312 312.34375 235.042969 313.242188 236.398438 312.863281 L 325.636719 287.886719 C 326.988281 287.503906 327.472656 285.988281 326.703125 284.5 L 315.785156 263.265625 C 315.023438 261.78125 313.292969 260.882812 311.9375 261.257812 " fill-opacity="1" fill-rule="nonzero"/></g><path fill="#f9c2af" d="M 189.835938 325.632812 C 195.257812 339.421875 192.773438 332.511719 201.429688 341.269531 C 210.085938 350.027344 217.839844 352.40625 219.347656 352.40625 C 220.859375 352.40625 218.609375 349.253906 218.609375 349.253906 C 218.609375 349.253906 221.761719 354.421875 224.179688 354.421875 C 226.59375 354.421875 225.386719 351.300781 225.386719 351.300781 C 225.386719 351.300781 225.386719 352.207031 227.90625 352.003906 C 230.421875 351.804688 225.488281 339.824219 225.1875 338.117188 C 224.886719 336.402344 221.503906 330.894531 221.503906 330.894531 L 226.59375 332.210938 C 226.59375 332.210938 232.164062 346.234375 234.042969 345.160156 C 235.925781 344.089844 234.378906 329.65625 230.621094 326.570312 C 226.863281 323.484375 205.257812 315.96875 205.257812 315.96875 C 205.257812 315.96875 184.417969 311.84375 189.835938 325.632812 Z M 236.921875 160.867188 C 236.273438 160.46875 235.515625 160.242188 234.710938 160.242188 C 232.394531 160.242188 230.484375 162.136719 230.484375 164.464844 L 230.484375 168.703125 C 230.484375 170.820312 232.070312 172.585938 234.105469 172.878906 L 234.523438 197.148438 C 216.726562 212.335938 203.976562 196.863281 203.976562 196.863281 L 209.363281 193.863281 L 209.023438 186.457031 C 201.082031 188.828125 196.320312 187.851562 190.769531 175.835938 C 185.21875 163.820312 189.972656 159.625 189.972656 159.625 C 189.972656 159.625 186.34375 141.710938 202.894531 136.5 C 207.25 135.125 211.050781 135.464844 214.296875 136.695312 C 217.066406 134.597656 224.066406 130.914062 224.066406 130.914062 C 224.066406 130.914062 218.121094 135.109375 215.03125 136.980469 C 223.683594 140.683594 228.175781 150.667969 228.175781 150.667969 C 228.175781 150.667969 231.921875 144.207031 238.269531 148.964844 C 242.273438 151.96875 239.507812 157.328125 236.921875 160.867188 " fill-opacity="1" fill-rule="nonzero"/><path fill="#402813" d="M 221.761719 330.597656 L 220.347656 329.363281 L 219.828125 329.957031 L 221.246094 331.191406 Z M 219.535156 349.9375 L 211.277344 338.621094 L 210.640625 339.085938 L 218.898438 350.402344 Z M 225.019531 351.441406 C 224.984375 351.347656 221.527344 342.210938 220.667969 340.433594 C 219.832031 338.683594 215.265625 333.253906 215.222656 333.203125 L 215.824219 332.691406 C 216.015625 332.917969 220.5 338.253906 221.382812 340.089844 C 222.25 341.898438 225.617188 350.785156 225.757812 351.164062 L 225.019531 351.441406 " fill-opacity="1" fill-rule="nonzero"/><path fill="#000000" d="M 241.230469 193.117188 C 241.433594 195.015625 243.113281 213.003906 235.171875 220.15625 C 233.0625 222.046875 230.460938 223 227.398438 223 C 226.167969 223 224.863281 222.847656 223.492188 222.539062 C 203.433594 218.050781 203.039062 199.535156 203.066406 197.347656 C 199.464844 199.160156 172.363281 212.851562 171.230469 215.113281 C 170.023438 217.523438 154.117188 288.789062 155.324219 291.003906 C 155.648438 291.601562 158.292969 294.371094 161.972656 298.109375 C 162.179688 298.320312 162.390625 298.535156 162.613281 298.753906 C 172.753906 308.996094 189.835938 325.636719 189.835938 325.636719 L 205.253906 315.964844 L 186.503906 292.5625 L 185.964844 291.894531 L 176.867188 280.535156 L 188.078125 253.15625 L 205.40625 286.855469 L 267.664062 270.722656 L 267.664062 199.207031 Z M 209.363281 193.863281 L 209.179688 191.148438 L 234.230469 180.078125 L 234.429688 191.550781 L 240.503906 192.949219 C 240.667969 194.730469 242.160156 212.804688 234.644531 219.566406 C 231.890625 222.042969 228.195312 222.785156 223.664062 221.769531 C 204.203125 217.414062 203.941406 198.992188 203.976562 196.863281 L 209.363281 193.863281 " fill-opacity="1" fill-rule="nonzero"/><path fill="#ffffff" d="M 204.585938 174.964844 C 197.40625 177.515625 195.660156 172.886719 195.660156 172.886719 C 200.960938 173.289062 215.589844 162.21875 215.589844 162.21875 C 215.589844 162.21875 211.765625 172.417969 204.585938 174.964844 " fill-opacity="1" fill-rule="nonzero"/><path fill="#402813" d="M 218.65625 351.183594 C 218.652344 351.175781 218.65625 351.125 218.636719 351.03125 C 218.4375 350.070312 217.761719 348.777344 216.90625 348.269531 C 216.695312 348.152344 216.496094 348.089844 216.304688 348.089844 C 216.214844 348.089844 216.128906 348.101562 216.042969 348.125 L 216.039062 348.128906 C 215.789062 348.207031 215.238281 348.460938 215.148438 348.765625 C 215.109375 348.917969 215.1875 349.105469 215.382812 349.332031 C 216.324219 350.390625 218.265625 351.351562 218.65625 351.183594 Z M 219.40625 350.871094 C 219.546875 351.542969 219.183594 351.804688 219.023438 351.882812 C 218.894531 351.949219 218.742188 351.976562 218.570312 351.976562 C 217.449219 351.976562 215.550781 350.707031 214.792969 349.851562 C 214.3125 349.304688 214.308594 348.84375 214.390625 348.546875 C 214.621094 347.757812 215.675781 347.414062 215.808594 347.375 C 216.292969 347.226562 216.808594 347.300781 217.304688 347.59375 C 218.367188 348.21875 219.167969 349.710938 219.40625 350.871094 Z M 224.433594 350.785156 L 224.433594 350.789062 C 224.433594 350.789062 224.003906 349.742188 223.109375 349.023438 C 222.730469 348.75 222.097656 348.429688 221.683594 348.429688 C 221.589844 348.429688 221.511719 348.445312 221.441406 348.484375 C 221.222656 348.605469 221.128906 349.023438 221.175781 349.664062 C 221.273438 350.960938 222.492188 352.28125 223.570312 352.703125 C 223.984375 352.867188 224.316406 352.871094 224.484375 352.714844 C 224.582031 352.621094 224.875 352.207031 224.433594 350.785156 Z M 225.175781 350.527344 C 225.597656 351.882812 225.542969 352.804688 225.019531 353.292969 C 224.789062 353.507812 224.484375 353.613281 224.132812 353.613281 C 223.875 353.613281 223.589844 353.554688 223.285156 353.4375 C 221.960938 352.917969 220.515625 351.386719 220.390625 349.722656 C 220.316406 348.734375 220.539062 348.082031 221.0625 347.792969 C 222 347.269531 223.421875 348.273438 223.582031 348.390625 L 223.59375 348.398438 C 224.671875 349.261719 225.15625 350.476562 225.175781 350.527344 Z M 227.09375 350.511719 C 226.546875 350.175781 226.160156 349.546875 225.949219 348.644531 C 225.722656 347.683594 225.765625 346.984375 226.082031 346.613281 C 226.363281 346.28125 226.800781 346.3125 226.816406 346.308594 L 226.847656 345.917969 L 226.882812 345.523438 C 226.847656 345.515625 226.042969 345.457031 225.488281 346.09375 C 224.992188 346.664062 224.890625 347.585938 225.183594 348.824219 C 225.445312 349.945312 225.953125 350.742188 226.695312 351.191406 C 227.210938 351.507812 227.738281 351.582031 228.121094 351.582031 C 228.445312 351.582031 228.664062 351.53125 228.679688 351.523438 L 228.488281 350.757812 C 228.484375 350.757812 227.761719 350.925781 227.09375 350.511719 Z M 233.050781 340.726562 C 232.742188 338.582031 234.46875 338.253906 234.667969 338.222656 L 234.609375 337.832031 L 234.554688 337.441406 C 234.507812 337.449219 233.433594 337.609375 232.753906 338.515625 C 232.300781 339.121094 232.136719 339.90625 232.269531 340.839844 C 232.683594 343.699219 234.460938 344.074219 234.535156 344.089844 L 234.691406 343.316406 C 234.636719 343.300781 233.382812 343 233.050781 340.726562 Z M 184.714844 315.675781 L 192.632812 323.363281 L 193.183594 322.796875 L 185.265625 315.105469 Z M 187.796875 311.683594 L 197.253906 321.089844 L 197.8125 320.53125 L 188.351562 311.125 Z M 192.628906 308.769531 L 201.878906 318.1875 L 202.4375 317.632812 L 193.1875 308.21875 Z M 212.121094 198.867188 L 212.90625 198.867188 L 212.90625 189.675781 L 212.121094 189.675781 Z M 219.039062 199.203125 L 219.039062 186.964844 L 218.25 186.964844 L 218.25 199.203125 Z M 224.1875 202.679688 L 224.976562 202.679688 L 224.976562 184.34375 L 224.1875 184.34375 Z M 229.246094 196.25 L 230.03125 196.25 L 230.03125 182.105469 L 229.246094 182.105469 Z M 199.925781 241.796875 L 189.300781 251.5 L 195.539062 238.429688 L 194.828125 238.089844 L 186.851562 254.8125 L 200.453125 242.378906 Z M 234.035156 191.5625 L 234.152344 195.890625 L 234.941406 195.871094 L 234.824219 191.539062 Z M 191.488281 146.214844 L 190.945312 147.566406 L 194.050781 145.183594 C 194.050781 145.183594 192.363281 145.117188 191.488281 146.214844 Z M 195.136719 155.828125 C 194.082031 156.453125 192.699219 157.40625 192.429688 158.265625 C 192.34375 158.550781 192.367188 158.828125 192.496094 159.0625 C 193.183594 160.300781 196.117188 163.5 196.242188 163.632812 L 196.824219 163.101562 C 196.792969 163.070312 193.828125 159.832031 193.1875 158.683594 C 193.171875 158.660156 193.148438 158.613281 193.183594 158.5 C 193.421875 157.730469 195.472656 156.480469 196.707031 155.871094 L 196.359375 155.164062 C 196.234375 155.226562 195.773438 155.457031 195.210938 155.785156 C 194.582031 155.4375 191.371094 153.742188 189.652344 154.648438 L 187.070312 153.863281 L 189.835938 156.660156 C 189.835938 156.660156 192.449219 155.445312 195.136719 155.828125 Z M 210.488281 139.882812 C 203.578125 138.472656 200.191406 142.96875 200.191406 142.96875 C 203.175781 141.15625 217.402344 141.292969 210.488281 139.882812 Z M 203.777344 153.570312 C 206.667969 150.886719 214.183594 149.679688 214.183594 149.679688 L 214.785156 145.921875 L 211.964844 147.800781 C 206.195312 148.871094 203.777344 153.570312 203.777344 153.570312 Z M 230.109375 155.738281 L 230.863281 155.96875 C 232.09375 151.910156 236.183594 152.269531 236.351562 152.285156 L 236.433594 151.503906 C 236.386719 151.496094 231.53125 151.050781 230.109375 155.738281 Z M 224.324219 175.433594 C 224.222656 175.523438 213.996094 184.289062 208.890625 186.082031 L 209.148438 186.824219 C 214.402344 184.984375 224.414062 176.394531 224.839844 176.03125 Z M 214.652344 163.402344 C 211.203125 165.914062 201.191406 172.921875 196.316406 173.273438 C 197.015625 174.34375 199.160156 176.476562 204.453125 174.59375 C 209.847656 172.679688 213.351562 166.210938 214.652344 163.402344 Z M 204.71875 175.339844 C 203.132812 175.898438 201.800781 176.121094 200.679688 176.121094 C 196.519531 176.121094 195.304688 173.066406 195.292969 173.027344 L 195.074219 172.445312 L 195.691406 172.492188 C 195.777344 172.5 195.871094 172.503906 195.964844 172.503906 C 201.285156 172.503906 215.210938 162.011719 215.351562 161.902344 L 215.933594 161.464844 C 214.824219 160.9375 214.003906 160.316406 213.941406 160.269531 L 214.421875 159.644531 C 214.445312 159.660156 216.996094 161.59375 219.046875 161.40625 L 219.117188 162.191406 C 219 162.207031 218.882812 162.207031 218.765625 162.207031 C 217.90625 162.207031 217.019531 161.941406 216.242188 161.601562 L 215.960938 162.355469 C 215.800781 162.777344 211.988281 172.757812 204.71875 175.339844 Z M 201.863281 161.265625 L 198.304688 160.257812 L 198.515625 159.5 L 202.074219 160.507812 L 201.863281 161.265625 " fill-opacity="1" fill-rule="nonzero"/><path fill="#ffffff" d="M 364.972656 262.941406 L 272.828125 288.664062 C 269 289.734375 265.210938 286.839844 265.242188 282.863281 L 265.828125 201.90625 C 265.847656 199.125 267.789062 196.722656 270.507812 196.113281 L 366.929688 174.644531 C 370.816406 173.785156 374.449219 176.886719 374.195312 180.863281 L 369.332031 257.558594 C 369.167969 260.097656 367.421875 262.257812 364.972656 262.941406 " fill-opacity="1" fill-rule="nonzero"/><path fill="#402813" d="M 337.628906 237.71875 C 337.425781 237.71875 337.21875 237.738281 337.015625 237.785156 L 312.890625 243.207031 C 311.613281 243.492188 310.71875 244.605469 310.71875 245.917969 L 310.71875 265.824219 C 310.71875 266.695312 311.117188 267.496094 311.804688 268.027344 C 312.492188 268.558594 313.375 268.734375 314.214844 268.511719 L 337.777344 262.261719 C 338.960938 261.949219 339.808594 260.875 339.84375 259.652344 L 340.402344 240.582031 C 340.425781 239.714844 340.058594 238.902344 339.390625 238.351562 C 338.886719 237.9375 338.265625 237.71875 337.628906 237.71875 Z M 313.492188 269.394531 C 312.71875 269.394531 311.960938 269.140625 311.324219 268.652344 C 310.4375 267.96875 309.929688 266.941406 309.929688 265.824219 L 309.929688 245.917969 C 309.929688 244.234375 311.078125 242.800781 312.71875 242.4375 L 336.839844 237.015625 C 337.921875 236.773438 339.039062 237.035156 339.894531 237.746094 C 340.75 238.449219 341.222656 239.496094 341.191406 240.601562 L 340.632812 259.675781 C 340.585938 261.246094 339.496094 262.621094 337.980469 263.023438 L 314.417969 269.273438 C 314.109375 269.355469 313.800781 269.394531 313.492188 269.394531 " fill-opacity="1" fill-rule="nonzero"/><path fill="#ffffff" d="M 358.246094 299.410156 L 310.199219 317.429688 C 309.085938 317.84375 307.84375 317.769531 306.796875 317.210938 L 292.589844 309.714844 C 289.320312 307.992188 289.753906 303.179688 293.273438 302.0625 L 344.453125 285.820312 C 345.503906 285.488281 346.644531 285.585938 347.625 286.089844 L 358.695312 291.816406 C 361.902344 293.472656 361.625 298.144531 358.246094 299.410156 " fill-opacity="1" fill-rule="nonzero"/><g clip-path="url(#53b09bcfe1)"><path fill="#402813" d="M 271.214844 285.578125 C 271.210938 284.800781 271.011719 207.351562 271.214844 204.179688 C 271.386719 201.410156 273.28125 200.347656 273.566406 200.199219 L 369.554688 178.566406 L 369.378906 177.800781 L 273.351562 199.441406 L 273.269531 199.464844 C 273.167969 199.515625 270.636719 200.710938 270.425781 204.128906 C 270.226562 207.324219 270.414062 282.386719 270.425781 285.582031 Z M 368.246094 174.894531 C 367.839844 174.894531 367.425781 174.941406 367.015625 175.035156 L 270.59375 196.5 C 268.039062 197.070312 266.238281 199.292969 266.222656 201.910156 L 265.636719 282.863281 C 265.621094 284.636719 266.421875 286.265625 267.824219 287.34375 C 269.234375 288.417969 271.015625 288.757812 272.71875 288.285156 L 364.867188 262.5625 C 367.152344 261.921875 368.789062 259.902344 368.9375 257.535156 L 373.800781 180.835938 C 373.917969 179.070312 373.207031 177.394531 371.859375 176.238281 C 370.832031 175.359375 369.5625 174.894531 368.246094 174.894531 Z M 271.203125 289.285156 C 269.824219 289.285156 268.480469 288.835938 267.347656 287.96875 C 265.742188 286.742188 264.832031 284.878906 264.847656 282.859375 L 265.433594 201.90625 C 265.453125 198.921875 267.507812 196.378906 270.421875 195.730469 L 366.84375 174.261719 C 368.816406 173.824219 370.832031 174.324219 372.375 175.640625 C 373.910156 176.957031 374.71875 178.867188 374.589844 180.890625 L 369.726562 257.582031 C 369.554688 260.289062 367.6875 262.59375 365.078125 263.320312 L 272.933594 289.042969 C 272.359375 289.203125 271.777344 289.285156 271.203125 289.285156 " fill-opacity="1" fill-rule="nonzero"/></g><path fill="#402813" d="M 309.488281 314.296875 L 293.011719 305.457031 L 292.640625 306.152344 L 309.113281 314.992188 Z M 345.484375 286.023438 C 345.179688 286.046875 344.871094 286.101562 344.570312 286.199219 L 293.394531 302.441406 C 291.917969 302.90625 290.914062 304.15625 290.777344 305.699219 C 290.640625 307.238281 291.402344 308.644531 292.773438 309.367188 L 306.976562 316.863281 C 307.929688 317.363281 309.054688 317.4375 310.058594 317.058594 L 358.105469 299.042969 C 359.523438 298.511719 360.457031 297.246094 360.546875 295.738281 C 360.636719 294.230469 359.859375 292.859375 358.515625 292.167969 L 347.441406 286.441406 C 346.828125 286.125 346.15625 285.984375 345.484375 286.023438 Z M 309.023438 318.078125 C 308.195312 318.128906 307.359375 317.957031 306.609375 317.5625 L 292.40625 310.066406 C 290.75 309.191406 289.828125 307.492188 289.992188 305.625 C 290.160156 303.761719 291.371094 302.253906 293.152344 301.6875 L 344.332031 285.445312 C 345.492188 285.078125 346.726562 285.179688 347.804688 285.742188 L 358.875 291.464844 C 360.5 292.304688 361.441406 293.960938 361.335938 295.78125 C 361.226562 297.609375 360.097656 299.140625 358.382812 299.78125 L 310.335938 317.800781 C 309.910156 317.957031 309.46875 318.050781 309.023438 318.078125 " fill-opacity="1" fill-rule="nonzero"/><path fill="#ffffff" d="M 333.167969 251.125 L 336.300781 257.839844 C 336.464844 258.195312 336.546875 258.578125 336.546875 258.964844 L 336.546875 294.003906 C 336.546875 295.15625 335.816406 296.171875 334.726562 296.535156 L 324.128906 300.066406 C 322.375 300.652344 320.570312 299.3125 320.625 297.460938 L 321.644531 262.472656 C 321.65625 262.09375 321.585938 261.714844 321.4375 261.367188 L 319 255.550781 C 318.367188 254.039062 319.234375 252.320312 320.828125 251.929688 L 330.125 249.660156 C 331.355469 249.359375 332.628906 249.972656 333.167969 251.125 " fill-opacity="1" fill-rule="nonzero"/><path fill="#402813" d="M 330.214844 250.042969 L 320.921875 252.3125 C 320.273438 252.46875 319.730469 252.902344 319.429688 253.496094 C 319.128906 254.089844 319.105469 254.785156 319.363281 255.398438 L 321.800781 261.210938 C 321.96875 261.617188 322.050781 262.042969 322.039062 262.484375 L 321.019531 297.472656 C 320.996094 298.226562 321.328125 298.914062 321.933594 299.363281 C 322.539062 299.8125 323.296875 299.929688 324.007812 299.691406 L 334.605469 296.160156 C 335.53125 295.851562 336.15625 294.984375 336.15625 294.003906 L 336.15625 258.964844 C 336.15625 258.628906 336.082031 258.308594 335.945312 258.003906 L 332.808594 251.289062 C 332.355469 250.3125 331.265625 249.789062 330.214844 250.042969 Z M 323.277344 300.601562 C 322.632812 300.601562 322 300.394531 321.460938 299.992188 C 320.648438 299.390625 320.199219 298.460938 320.230469 297.449219 L 321.25 262.460938 C 321.257812 262.136719 321.199219 261.820312 321.074219 261.515625 L 318.636719 255.703125 C 318.289062 254.875 318.324219 253.941406 318.726562 253.140625 C 319.128906 252.339844 319.859375 251.757812 320.730469 251.550781 L 330.027344 249.28125 C 331.4375 248.9375 332.910156 249.640625 333.523438 250.957031 L 336.65625 257.671875 C 336.847656 258.078125 336.941406 258.515625 336.941406 258.964844 L 336.941406 294.003906 C 336.941406 295.324219 336.105469 296.492188 334.855469 296.90625 L 324.257812 300.441406 C 323.933594 300.546875 323.601562 300.601562 323.277344 300.601562 " fill-opacity="1" fill-rule="nonzero"/></svg>