<svg xmlns="http://www.w3.org/2000/svg" xmlns:xlink="http://www.w3.org/1999/xlink" width="200" zoomAndPan="magnify" viewBox="0 0 150 60" height="80" preserveAspectRatio="xMidYMid meet" version="1.0"><defs><g/><clipPath id="533c6c6fa7"><path d="M 1.5 18.300781 L 24.75 18.300781 L 24.75 41.550781 L 1.5 41.550781 Z M 1.5 18.300781 " clip-rule="nonzero"/></clipPath><clipPath id="af90c877de"><path d="M 1.5 24.300781 L 1.5 35.699219 C 1.5 39.015625 4.1875 41.699219 7.5 41.699219 L 18.898438 41.699219 C 22.214844 41.699219 24.898438 39.015625 24.898438 35.699219 L 24.898438 24.300781 C 24.898438 20.984375 22.214844 18.300781 18.898438 18.300781 L 7.5 18.300781 C 4.1875 18.300781 1.5 20.984375 1.5 24.300781 Z M 1.5 24.300781 " clip-rule="nonzero"/></clipPath><clipPath id="4d3f2be942"><path d="M 13 23 L 20 23 L 20 33 L 13 33 Z M 13 23 " clip-rule="nonzero"/></clipPath><clipPath id="ce434359f2"><path d="M 1.5 24.300781 L 1.5 35.699219 C 1.5 39.015625 4.1875 41.699219 7.5 41.699219 L 18.898438 41.699219 C 22.214844 41.699219 24.898438 39.015625 24.898438 35.699219 L 24.898438 24.300781 C 24.898438 20.984375 22.214844 18.300781 18.898438 18.300781 L 7.5 18.300781 C 4.1875 18.300781 1.5 20.984375 1.5 24.300781 Z M 1.5 24.300781 " clip-rule="nonzero"/></clipPath><clipPath id="cc6d844fec"><path d="M 7 22 L 19 22 L 19 36 L 7 36 Z M 7 22 " clip-rule="nonzero"/></clipPath><clipPath id="ce22ccc7fe"><path d="M 1.5 24.300781 L 1.5 35.699219 C 1.5 39.015625 4.1875 41.699219 7.5 41.699219 L 18.898438 41.699219 C 22.214844 41.699219 24.898438 39.015625 24.898438 35.699219 L 24.898438 24.300781 C 24.898438 20.984375 22.214844 18.300781 18.898438 18.300781 L 7.5 18.300781 C 4.1875 18.300781 1.5 20.984375 1.5 24.300781 Z M 1.5 24.300781 " clip-rule="nonzero"/></clipPath></defs><g clip-path="url(#533c6c6fa7)"><g clip-path="url(#af90c877de)"><path fill="#000000" d="M 2.492188 18.300781 L 23.757812 18.300781 C 23.890625 18.300781 24.015625 18.324219 24.136719 18.375 C 24.257812 18.425781 24.367188 18.496094 24.460938 18.589844 C 24.550781 18.683594 24.625 18.789062 24.675781 18.910156 C 24.726562 19.035156 24.75 19.160156 24.75 19.292969 L 24.75 40.558594 C 24.75 40.691406 24.726562 40.816406 24.675781 40.9375 C 24.625 41.058594 24.550781 41.167969 24.460938 41.257812 C 24.367188 41.351562 24.257812 41.425781 24.136719 41.472656 C 24.015625 41.523438 23.890625 41.550781 23.757812 41.550781 L 2.492188 41.550781 C 2.359375 41.550781 2.234375 41.523438 2.113281 41.472656 C 1.992188 41.425781 1.882812 41.351562 1.789062 41.257812 C 1.699219 41.167969 1.625 41.058594 1.574219 40.9375 C 1.523438 40.816406 1.5 40.691406 1.5 40.558594 L 1.5 19.292969 C 1.5 19.160156 1.523438 19.035156 1.574219 18.910156 C 1.625 18.789062 1.699219 18.683594 1.789062 18.589844 C 1.882812 18.496094 1.992188 18.425781 2.113281 18.375 C 2.234375 18.324219 2.359375 18.300781 2.492188 18.300781 Z M 2.492188 18.300781 " fill-opacity="1" fill-rule="nonzero"/></g></g><g clip-path="url(#4d3f2be942)"><g clip-path="url(#ce434359f2)"><path fill="#ffffff" d="M 13.714844 25.910156 C 13.511719 25.910156 13.3125 25.933594 13.125 25.980469 C 13.246094 24.882812 13.683594 23.882812 14.347656 23.070312 C 16.976562 23.382812 19.019531 25.621094 19.019531 28.335938 L 19.019531 32.207031 C 18.914062 32.210938 18.808594 32.214844 18.699219 32.214844 C 16.59375 32.214844 14.757812 31.054688 13.800781 29.339844 L 16.140625 29.339844 L 16.140625 28.335938 C 16.140625 26.996094 15.054688 25.910156 13.714844 25.910156 Z M 13.714844 25.910156 " fill-opacity="1" fill-rule="evenodd"/></g></g><g clip-path="url(#cc6d844fec)"><g clip-path="url(#ce22ccc7fe)"><path fill="#ffffff" d="M 7.164062 28.671875 C 7.164062 25.414062 9.804688 22.769531 13.0625 22.769531 C 14.691406 22.769531 16.167969 23.429688 17.234375 24.5 C 16.25 23.515625 14.921875 22.875 13.441406 22.78125 C 12.449219 23.882812 11.84375 25.34375 11.84375 26.941406 C 11.84375 27.0625 11.847656 27.179688 11.851562 27.296875 C 11.472656 27.632812 11.234375 28.125 11.234375 28.671875 L 11.234375 29.078125 L 14.894531 29.078125 L 12.21875 29.078125 C 13.089844 31.453125 15.371094 33.148438 18.046875 33.148438 C 18.359375 33.148438 18.664062 33.125 18.964844 33.078125 L 18.964844 35.589844 L 14.894531 35.589844 L 14.894531 33.148438 L 11.234375 33.148438 L 11.234375 35.589844 L 7.164062 35.589844 Z M 7.164062 28.671875 " fill-opacity="1" fill-rule="evenodd"/></g></g><g fill="#000000" fill-opacity="1"><g transform="translate(27.149999, 37.841818)"><g><path d="M 3.21875 0.125 C 2.75 0.125 2.347656 -0.0351562 2.015625 -0.359375 C 1.679688 -0.660156 1.515625 -1.054688 1.515625 -1.546875 L 1.515625 -9.859375 C 1.515625 -10.796875 1.648438 -11.65625 1.921875 -12.4375 C 2.191406 -13.226562 2.582031 -13.914062 3.09375 -14.5 C 3.613281 -15.082031 4.242188 -15.53125 4.984375 -15.84375 C 5.722656 -16.164062 6.554688 -16.328125 7.484375 -16.328125 C 8.410156 -16.328125 9.25 -16.171875 10 -15.859375 C 10.757812 -15.554688 11.40625 -15.109375 11.9375 -14.515625 C 12.46875 -13.941406 12.875 -13.238281 13.15625 -12.40625 C 13.4375 -11.582031 13.578125 -10.664062 13.578125 -9.65625 L 13.578125 -1.546875 C 13.578125 -1.085938 13.410156 -0.691406 13.078125 -0.359375 C 12.921875 -0.210938 12.738281 -0.09375 12.53125 0 C 12.320312 0.0820312 12.101562 0.125 11.875 0.125 C 11.632812 0.125 11.410156 0.0820312 11.203125 0 C 11.003906 -0.09375 10.828125 -0.210938 10.671875 -0.359375 C 10.335938 -0.679688 10.171875 -1.078125 10.171875 -1.546875 L 10.171875 -4.125 L 4.90625 -4.125 L 4.90625 -1.546875 C 4.90625 -1.054688 4.738281 -0.660156 4.40625 -0.359375 C 4.25 -0.210938 4.066406 -0.09375 3.859375 0 C 3.648438 0.0820312 3.4375 0.125 3.21875 0.125 Z M 4.90625 -7.5 L 10.171875 -7.5 L 10.171875 -9.65625 C 10.171875 -10.707031 9.945312 -11.519531 9.5 -12.09375 C 9.0625 -12.664062 8.410156 -12.953125 7.546875 -12.953125 C 6.679688 -12.953125 6.023438 -12.6875 5.578125 -12.15625 C 5.128906 -11.625 4.90625 -10.785156 4.90625 -9.640625 Z M 4.90625 -7.5 "/></g></g></g><g fill="#000000" fill-opacity="1"><g transform="translate(42.241879, 37.841818)"><g><path d="M 6.9375 0 L 2.140625 0 C 1.710938 0 1.351562 -0.15625 1.0625 -0.46875 C 0.769531 -0.78125 0.625 -1.1875 0.625 -1.6875 C 0.625 -2.164062 0.757812 -2.550781 1.03125 -2.84375 C 1.3125 -3.132812 1.679688 -3.28125 2.140625 -3.28125 L 6.5625 -3.28125 C 6.757812 -3.28125 6.910156 -3.320312 7.015625 -3.40625 C 7.171875 -3.5 7.25 -3.648438 7.25 -3.859375 C 7.25 -4.066406 7.171875 -4.210938 7.015625 -4.296875 C 6.929688 -4.347656 6.773438 -4.375 6.546875 -4.375 L 4.53125 -4.375 C 4.007812 -4.375 3.519531 -4.476562 3.0625 -4.6875 C 2.613281 -4.894531 2.222656 -5.1875 1.890625 -5.5625 C 1.554688 -5.9375 1.296875 -6.359375 1.109375 -6.828125 C 0.929688 -7.296875 0.84375 -7.78125 0.84375 -8.28125 C 0.84375 -8.769531 0.9375 -9.238281 1.125 -9.6875 C 1.320312 -10.132812 1.585938 -10.523438 1.921875 -10.859375 C 2.273438 -11.191406 2.671875 -11.453125 3.109375 -11.640625 C 3.554688 -11.828125 4.03125 -11.921875 4.53125 -11.921875 L 8.375 -11.921875 C 8.84375 -11.921875 9.222656 -11.785156 9.515625 -11.515625 C 9.835938 -11.222656 10 -10.828125 10 -10.328125 C 10 -9.847656 9.847656 -9.453125 9.546875 -9.140625 C 9.421875 -8.984375 9.257812 -8.859375 9.0625 -8.765625 C 8.875 -8.679688 8.675781 -8.640625 8.46875 -8.640625 L 4.59375 -8.640625 C 4.46875 -8.640625 4.359375 -8.59375 4.265625 -8.5 C 4.171875 -8.414062 4.125 -8.300781 4.125 -8.15625 C 4.125 -7.976562 4.171875 -7.851562 4.265625 -7.78125 C 4.359375 -7.707031 4.460938 -7.671875 4.578125 -7.671875 L 6.828125 -7.671875 C 7.347656 -7.671875 7.835938 -7.566406 8.296875 -7.359375 C 8.765625 -7.160156 9.164062 -6.875 9.5 -6.5 C 9.832031 -6.132812 10.085938 -5.71875 10.265625 -5.25 C 10.453125 -4.78125 10.546875 -4.289062 10.546875 -3.78125 C 10.546875 -3.28125 10.457031 -2.804688 10.28125 -2.359375 C 10.113281 -1.910156 9.867188 -1.507812 9.546875 -1.15625 C 9.210938 -0.800781 8.820312 -0.523438 8.375 -0.328125 C 7.9375 -0.128906 7.457031 -0.0195312 6.9375 0 Z M 6.9375 0 "/></g></g></g><g fill="#000000" fill-opacity="1"><g transform="translate(53.205432, 37.841818)"><g><path d="M 7.125 0.140625 C 6.3125 0.140625 5.535156 -0.015625 4.796875 -0.328125 C 4.066406 -0.640625 3.425781 -1.070312 2.875 -1.625 C 2.320312 -2.175781 1.882812 -2.816406 1.5625 -3.546875 C 1.25 -4.285156 1.09375 -5.066406 1.09375 -5.890625 L 1.09375 -13.875 C 1.09375 -14.34375 1.257812 -14.738281 1.59375 -15.0625 C 1.738281 -15.207031 1.910156 -15.320312 2.109375 -15.40625 C 2.316406 -15.5 2.53125 -15.546875 2.75 -15.546875 C 2.976562 -15.546875 3.195312 -15.5 3.40625 -15.40625 C 3.613281 -15.320312 3.796875 -15.207031 3.953125 -15.0625 C 4.109375 -14.90625 4.234375 -14.722656 4.328125 -14.515625 C 4.421875 -14.316406 4.46875 -14.101562 4.46875 -13.875 L 4.46875 -12.296875 L 8.265625 -12.296875 C 8.492188 -12.296875 8.707031 -12.25 8.90625 -12.15625 C 9.101562 -12.070312 9.28125 -11.957031 9.4375 -11.8125 C 9.59375 -11.65625 9.710938 -11.472656 9.796875 -11.265625 C 9.878906 -11.066406 9.921875 -10.859375 9.921875 -10.640625 C 9.921875 -10.210938 9.757812 -9.84375 9.4375 -9.53125 C 9.113281 -9.21875 8.722656 -9.0625 8.265625 -9.0625 L 4.46875 -9.0625 L 4.46875 -5.859375 C 4.46875 -5.085938 4.722656 -4.445312 5.234375 -3.9375 C 5.742188 -3.40625 6.375 -3.140625 7.125 -3.140625 C 7.832031 -3.140625 8.40625 -3.332031 8.84375 -3.71875 C 9.238281 -4.09375 9.648438 -4.28125 10.078125 -4.28125 C 10.265625 -4.28125 10.445312 -4.238281 10.625 -4.15625 C 10.8125 -4.082031 10.972656 -3.972656 11.109375 -3.828125 C 11.410156 -3.515625 11.5625 -3.15625 11.5625 -2.75 C 11.5625 -2.488281 11.507812 -2.234375 11.40625 -1.984375 C 11.3125 -1.742188 11.164062 -1.523438 10.96875 -1.328125 C 10.457031 -0.835938 9.875 -0.46875 9.21875 -0.21875 C 8.570312 0.0195312 7.875 0.140625 7.125 0.140625 Z M 7.125 0.140625 "/></g></g></g><g fill="#000000" fill-opacity="1"><g transform="translate(65.046563, 37.841818)"><g><path d="M 2.78125 0 C 2.3125 0 1.921875 -0.15625 1.609375 -0.46875 C 1.453125 -0.613281 1.328125 -0.785156 1.234375 -0.984375 C 1.140625 -1.179688 1.09375 -1.394531 1.09375 -1.625 L 1.09375 -5.765625 C 1.125 -6.597656 1.304688 -7.382812 1.640625 -8.125 C 1.972656 -8.875 2.425781 -9.53125 3 -10.09375 C 3.570312 -10.65625 4.226562 -11.097656 4.96875 -11.421875 C 5.71875 -11.742188 6.507812 -11.910156 7.34375 -11.921875 L 7.4375 -11.921875 C 7.976562 -11.921875 8.394531 -11.769531 8.6875 -11.46875 C 8.988281 -11.175781 9.140625 -10.785156 9.140625 -10.296875 C 9.140625 -9.835938 8.976562 -9.445312 8.65625 -9.125 C 8.320312 -8.8125 7.914062 -8.65625 7.4375 -8.65625 L 7.359375 -8.65625 C 6.960938 -8.644531 6.585938 -8.5625 6.234375 -8.40625 C 5.878906 -8.25 5.566406 -8.03125 5.296875 -7.75 C 5.015625 -7.46875 4.796875 -7.144531 4.640625 -6.78125 C 4.484375 -6.414062 4.398438 -6.035156 4.390625 -5.640625 L 4.390625 -1.625 C 4.390625 -1.15625 4.234375 -0.769531 3.921875 -0.46875 C 3.609375 -0.15625 3.226562 0 2.78125 0 Z M 2.78125 0 "/></g></g></g><g fill="#000000" fill-opacity="1"><g transform="translate(74.465083, 37.841818)"><g><path d="M 6.578125 0.140625 C 5.765625 0.140625 4.992188 -0.015625 4.265625 -0.328125 C 3.535156 -0.640625 2.890625 -1.070312 2.328125 -1.625 C 1.765625 -2.175781 1.328125 -2.816406 1.015625 -3.546875 C 0.703125 -4.285156 0.546875 -5.066406 0.546875 -5.890625 C 0.546875 -6.703125 0.703125 -7.472656 1.015625 -8.203125 C 1.328125 -8.941406 1.765625 -9.59375 2.328125 -10.15625 C 2.890625 -10.71875 3.535156 -11.148438 4.265625 -11.453125 C 4.992188 -11.765625 5.765625 -11.921875 6.578125 -11.921875 C 7.390625 -11.921875 8.164062 -11.765625 8.90625 -11.453125 C 9.644531 -11.140625 10.289062 -10.707031 10.84375 -10.15625 C 11.394531 -9.59375 11.828125 -8.941406 12.140625 -8.203125 C 12.453125 -7.472656 12.609375 -6.703125 12.609375 -5.890625 C 12.609375 -5.066406 12.453125 -4.289062 12.140625 -3.5625 C 11.835938 -2.832031 11.40625 -2.1875 10.84375 -1.625 C 10.289062 -1.070312 9.644531 -0.640625 8.90625 -0.328125 C 8.164062 -0.015625 7.390625 0.140625 6.578125 0.140625 Z M 6.578125 -3.171875 C 6.941406 -3.171875 7.289062 -3.238281 7.625 -3.375 C 7.96875 -3.507812 8.265625 -3.703125 8.515625 -3.953125 C 8.773438 -4.210938 8.972656 -4.503906 9.109375 -4.828125 C 9.242188 -5.160156 9.3125 -5.515625 9.3125 -5.890625 C 9.3125 -6.253906 9.242188 -6.597656 9.109375 -6.921875 C 8.972656 -7.253906 8.773438 -7.550781 8.515625 -7.8125 C 8.265625 -8.0625 7.96875 -8.253906 7.625 -8.390625 C 7.289062 -8.535156 6.941406 -8.609375 6.578125 -8.609375 C 6.210938 -8.609375 5.863281 -8.535156 5.53125 -8.390625 C 5.195312 -8.253906 4.90625 -8.0625 4.65625 -7.8125 C 4.40625 -7.550781 4.207031 -7.253906 4.0625 -6.921875 C 3.914062 -6.597656 3.84375 -6.253906 3.84375 -5.890625 C 3.84375 -5.515625 3.914062 -5.160156 4.0625 -4.828125 C 4.207031 -4.503906 4.40625 -4.210938 4.65625 -3.953125 C 4.90625 -3.703125 5.195312 -3.507812 5.53125 -3.375 C 5.863281 -3.238281 6.210938 -3.171875 6.578125 -3.171875 Z M 6.578125 -3.171875 "/></g></g></g><g fill="#000000" fill-opacity="1"><g transform="translate(87.616402, 37.841818)"><g><path d="M 7.484375 0.140625 C 6.648438 0.140625 5.863281 -0.0078125 5.125 -0.3125 C 4.394531 -0.613281 3.753906 -1.039062 3.203125 -1.59375 C 2.628906 -2.164062 2.1875 -2.835938 1.875 -3.609375 C 1.5625 -4.378906 1.40625 -5.222656 1.40625 -6.140625 L 1.40625 -10.078125 C 1.40625 -10.984375 1.5625 -11.820312 1.875 -12.59375 C 2.1875 -13.375 2.628906 -14.050781 3.203125 -14.625 C 3.753906 -15.175781 4.394531 -15.601562 5.125 -15.90625 C 5.863281 -16.207031 6.648438 -16.359375 7.484375 -16.359375 C 8.691406 -16.359375 9.765625 -16.070312 10.703125 -15.5 C 11.054688 -15.28125 11.394531 -15.007812 11.71875 -14.6875 C 12.050781 -14.375 12.359375 -14.007812 12.640625 -13.59375 C 12.867188 -13.257812 12.984375 -12.898438 12.984375 -12.515625 C 12.984375 -12.066406 12.820312 -11.691406 12.5 -11.390625 C 12.164062 -11.066406 11.753906 -10.90625 11.265625 -10.90625 C 10.753906 -10.90625 10.378906 -11.097656 10.140625 -11.484375 C 9.941406 -11.785156 9.773438 -12.019531 9.640625 -12.1875 C 9.515625 -12.351562 9.367188 -12.492188 9.203125 -12.609375 C 8.796875 -12.890625 8.222656 -13.03125 7.484375 -13.03125 C 6.679688 -13.03125 6.039062 -12.796875 5.5625 -12.328125 C 5 -11.796875 4.71875 -11.050781 4.71875 -10.09375 L 4.71875 -6.125 C 4.71875 -5.164062 5 -4.414062 5.5625 -3.875 C 6.039062 -3.414062 6.679688 -3.1875 7.484375 -3.1875 C 8.203125 -3.1875 8.773438 -3.328125 9.203125 -3.609375 C 9.378906 -3.722656 9.53125 -3.863281 9.65625 -4.03125 C 9.789062 -4.195312 9.953125 -4.429688 10.140625 -4.734375 C 10.253906 -4.921875 10.410156 -5.0625 10.609375 -5.15625 C 10.816406 -5.25 11.039062 -5.296875 11.28125 -5.296875 C 11.757812 -5.296875 12.171875 -5.140625 12.515625 -4.828125 C 12.828125 -4.503906 12.984375 -4.128906 12.984375 -3.703125 C 12.984375 -3.359375 12.878906 -3.015625 12.671875 -2.671875 C 12.460938 -2.328125 12.171875 -1.960938 11.796875 -1.578125 C 11.085938 -0.859375 10.253906 -0.363281 9.296875 -0.09375 C 8.796875 0.0625 8.191406 0.140625 7.484375 0.140625 Z M 7.484375 0.140625 "/></g></g></g><g fill="#000000" fill-opacity="1"><g transform="translate(101.632939, 37.841818)"><g><path d="M 6.578125 0.140625 C 5.765625 0.140625 4.992188 -0.015625 4.265625 -0.328125 C 3.535156 -0.640625 2.890625 -1.070312 2.328125 -1.625 C 1.765625 -2.175781 1.328125 -2.816406 1.015625 -3.546875 C 0.703125 -4.285156 0.546875 -5.066406 0.546875 -5.890625 C 0.546875 -6.703125 0.703125 -7.472656 1.015625 -8.203125 C 1.328125 -8.941406 1.765625 -9.59375 2.328125 -10.15625 C 2.890625 -10.71875 3.535156 -11.148438 4.265625 -11.453125 C 4.992188 -11.765625 5.765625 -11.921875 6.578125 -11.921875 C 7.390625 -11.921875 8.164062 -11.765625 8.90625 -11.453125 C 9.644531 -11.140625 10.289062 -10.707031 10.84375 -10.15625 C 11.394531 -9.59375 11.828125 -8.941406 12.140625 -8.203125 C 12.453125 -7.472656 12.609375 -6.703125 12.609375 -5.890625 C 12.609375 -5.066406 12.453125 -4.289062 12.140625 -3.5625 C 11.835938 -2.832031 11.40625 -2.1875 10.84375 -1.625 C 10.289062 -1.070312 9.644531 -0.640625 8.90625 -0.328125 C 8.164062 -0.015625 7.390625 0.140625 6.578125 0.140625 Z M 6.578125 -3.171875 C 6.941406 -3.171875 7.289062 -3.238281 7.625 -3.375 C 7.96875 -3.507812 8.265625 -3.703125 8.515625 -3.953125 C 8.773438 -4.210938 8.972656 -4.503906 9.109375 -4.828125 C 9.242188 -5.160156 9.3125 -5.515625 9.3125 -5.890625 C 9.3125 -6.253906 9.242188 -6.597656 9.109375 -6.921875 C 8.972656 -7.253906 8.773438 -7.550781 8.515625 -7.8125 C 8.265625 -8.0625 7.96875 -8.253906 7.625 -8.390625 C 7.289062 -8.535156 6.941406 -8.609375 6.578125 -8.609375 C 6.210938 -8.609375 5.863281 -8.535156 5.53125 -8.390625 C 5.195312 -8.253906 4.90625 -8.0625 4.65625 -7.8125 C 4.40625 -7.550781 4.207031 -7.253906 4.0625 -6.921875 C 3.914062 -6.597656 3.84375 -6.253906 3.84375 -5.890625 C 3.84375 -5.515625 3.914062 -5.160156 4.0625 -4.828125 C 4.207031 -4.503906 4.40625 -4.210938 4.65625 -3.953125 C 4.90625 -3.703125 5.195312 -3.507812 5.53125 -3.375 C 5.863281 -3.238281 6.210938 -3.171875 6.578125 -3.171875 Z M 6.578125 -3.171875 "/></g></g></g><g fill="#000000" fill-opacity="1"><g transform="translate(114.784258, 37.841818)"><g><path d="M 5.890625 0 C 5.328125 0 4.785156 -0.09375 4.265625 -0.28125 C 3.753906 -0.476562 3.300781 -0.753906 2.90625 -1.109375 C 2.507812 -1.472656 2.195312 -1.898438 1.96875 -2.390625 C 1.75 -2.890625 1.640625 -3.425781 1.640625 -4 L 1.640625 -14.5625 C 1.640625 -15.019531 1.796875 -15.40625 2.109375 -15.71875 C 2.421875 -16.039062 2.789062 -16.203125 3.21875 -16.203125 C 3.445312 -16.203125 3.664062 -16.15625 3.875 -16.0625 C 4.082031 -15.976562 4.265625 -15.863281 4.421875 -15.71875 C 4.578125 -15.5625 4.703125 -15.382812 4.796875 -15.1875 C 4.890625 -14.988281 4.9375 -14.78125 4.9375 -14.5625 L 4.9375 -3.9375 C 4.976562 -3.457031 5.296875 -3.21875 5.890625 -3.21875 C 6.367188 -3.21875 6.757812 -3.0625 7.0625 -2.75 C 7.363281 -2.445312 7.515625 -2.066406 7.515625 -1.609375 C 7.515625 -1.148438 7.363281 -0.765625 7.0625 -0.453125 C 6.75 -0.148438 6.359375 0 5.890625 0 Z M 5.890625 0 "/></g></g></g><g fill="#000000" fill-opacity="1"><g transform="translate(122.583583, 37.841818)"><g><path d="M 6.578125 0.140625 C 5.765625 0.140625 4.992188 -0.015625 4.265625 -0.328125 C 3.535156 -0.640625 2.890625 -1.070312 2.328125 -1.625 C 1.765625 -2.175781 1.328125 -2.816406 1.015625 -3.546875 C 0.703125 -4.285156 0.546875 -5.066406 0.546875 -5.890625 C 0.546875 -6.703125 0.703125 -7.472656 1.015625 -8.203125 C 1.328125 -8.941406 1.765625 -9.59375 2.328125 -10.15625 C 2.890625 -10.71875 3.535156 -11.148438 4.265625 -11.453125 C 4.992188 -11.765625 5.765625 -11.921875 6.578125 -11.921875 C 7.378906 -11.921875 8.144531 -11.769531 8.875 -11.46875 C 9.601562 -11.164062 10.242188 -10.738281 10.796875 -10.1875 C 11.347656 -9.644531 11.78125 -9.007812 12.09375 -8.28125 C 12.414062 -7.550781 12.585938 -6.785156 12.609375 -5.984375 L 12.609375 -1.546875 C 12.609375 -1.078125 12.445312 -0.679688 12.125 -0.359375 C 11.789062 -0.0234375 11.390625 0.140625 10.921875 0.140625 C 10.316406 0.140625 9.859375 -0.117188 9.546875 -0.640625 C 8.617188 -0.117188 7.628906 0.140625 6.578125 0.140625 Z M 6.578125 -3.171875 C 6.941406 -3.171875 7.289062 -3.238281 7.625 -3.375 C 7.96875 -3.507812 8.265625 -3.703125 8.515625 -3.953125 C 8.773438 -4.210938 8.972656 -4.503906 9.109375 -4.828125 C 9.242188 -5.160156 9.3125 -5.515625 9.3125 -5.890625 C 9.3125 -6.253906 9.242188 -6.597656 9.109375 -6.921875 C 8.972656 -7.253906 8.773438 -7.550781 8.515625 -7.8125 C 8.265625 -8.0625 7.96875 -8.253906 7.625 -8.390625 C 7.289062 -8.535156 6.941406 -8.609375 6.578125 -8.609375 C 6.210938 -8.609375 5.863281 -8.535156 5.53125 -8.390625 C 5.195312 -8.253906 4.90625 -8.0625 4.65625 -7.8125 C 4.40625 -7.550781 4.207031 -7.253906 4.0625 -6.921875 C 3.914062 -6.597656 3.84375 -6.253906 3.84375 -5.890625 C 3.84375 -5.515625 3.914062 -5.160156 4.0625 -4.828125 C 4.207031 -4.503906 4.40625 -4.210938 4.65625 -3.953125 C 4.90625 -3.703125 5.195312 -3.507812 5.53125 -3.375 C 5.863281 -3.238281 6.210938 -3.171875 6.578125 -3.171875 Z M 6.578125 -3.171875 "/></g></g></g><g fill="#000000" fill-opacity="1"><g transform="translate(136.291114, 37.841818)"><g><path d="M 7.140625 0.140625 C 6.328125 0.140625 5.550781 -0.015625 4.8125 -0.328125 C 4.082031 -0.640625 3.4375 -1.070312 2.875 -1.625 C 2.320312 -2.175781 1.882812 -2.816406 1.5625 -3.546875 C 1.25 -4.285156 1.09375 -5.066406 1.09375 -5.890625 L 1.09375 -14.625 C 1.09375 -14.863281 1.132812 -15.085938 1.21875 -15.296875 C 1.3125 -15.503906 1.429688 -15.6875 1.578125 -15.84375 C 1.722656 -15.988281 1.898438 -16.101562 2.109375 -16.1875 C 2.316406 -16.28125 2.53125 -16.328125 2.75 -16.328125 C 2.976562 -16.328125 3.191406 -16.28125 3.390625 -16.1875 C 3.597656 -16.101562 3.78125 -15.988281 3.9375 -15.84375 C 4.238281 -15.519531 4.390625 -15.113281 4.390625 -14.625 L 4.390625 -10.828125 C 4.648438 -11.140625 5.050781 -11.398438 5.59375 -11.609375 C 6.144531 -11.816406 6.660156 -11.921875 7.140625 -11.921875 C 7.953125 -11.921875 8.722656 -11.765625 9.453125 -11.453125 C 10.191406 -11.140625 10.835938 -10.707031 11.390625 -10.15625 C 11.941406 -9.59375 12.375 -8.941406 12.6875 -8.203125 C 13 -7.472656 13.15625 -6.703125 13.15625 -5.890625 C 13.15625 -5.066406 13 -4.289062 12.6875 -3.5625 C 12.382812 -2.832031 11.953125 -2.1875 11.390625 -1.625 C 10.835938 -1.070312 10.191406 -0.640625 9.453125 -0.328125 C 8.722656 -0.015625 7.953125 0.140625 7.140625 0.140625 Z M 7.140625 -3.171875 C 7.515625 -3.171875 7.867188 -3.238281 8.203125 -3.375 C 8.535156 -3.507812 8.828125 -3.703125 9.078125 -3.953125 C 9.328125 -4.210938 9.519531 -4.503906 9.65625 -4.828125 C 9.800781 -5.160156 9.875 -5.515625 9.875 -5.890625 C 9.875 -6.253906 9.800781 -6.597656 9.65625 -6.921875 C 9.519531 -7.253906 9.328125 -7.550781 9.078125 -7.8125 C 8.828125 -8.0625 8.535156 -8.253906 8.203125 -8.390625 C 7.867188 -8.535156 7.515625 -8.609375 7.140625 -8.609375 C 6.773438 -8.609375 6.425781 -8.535156 6.09375 -8.390625 C 5.757812 -8.253906 5.46875 -8.0625 5.21875 -7.8125 C 4.957031 -7.550781 4.753906 -7.253906 4.609375 -6.921875 C 4.472656 -6.597656 4.40625 -6.253906 4.40625 -5.890625 C 4.40625 -5.515625 4.472656 -5.160156 4.609375 -4.828125 C 4.753906 -4.503906 4.957031 -4.210938 5.21875 -3.953125 C 5.46875 -3.703125 5.757812 -3.507812 6.09375 -3.375 C 6.425781 -3.238281 6.773438 -3.171875 7.140625 -3.171875 Z M 7.140625 -3.171875 "/></g></g></g></svg>