<svg width="400" height="400" viewBox="0 0 400 400" fill="none" xmlns="http://www.w3.org/2000/svg">
<rect width="400" height="400" rx="17.0513" fill="black"/>
<path fill-rule="evenodd" clip-rule="evenodd" d="M210.152 130.903C206.653 130.903 203.251 131.335 200 132.148C202.093 113.269 209.629 96.0411 221.013 82.051C266.285 87.4165 301.402 125.942 301.402 172.662V239.256C299.584 239.358 297.752 239.41 295.907 239.41C259.691 239.41 228.115 219.455 211.608 189.918H251.91V172.662C251.91 149.599 233.215 130.903 210.152 130.903Z" fill="white"/>
<path fill-rule="evenodd" clip-rule="evenodd" d="M97.436 178.429C97.436 122.369 142.882 76.9231 198.942 76.9231C226.972 76.9231 252.349 88.2845 270.717 106.653C253.784 89.7204 230.896 78.7423 205.464 77.1297C188.358 96.0614 177.941 121.153 177.941 148.678C177.941 150.731 177.999 152.771 178.113 154.795C171.569 160.568 167.44 169.016 167.44 178.429V185.429H230.444L184.436 185.43C199.416 226.283 238.652 255.434 284.697 255.434C290.049 255.434 295.308 255.04 300.448 254.28V297.436H230.444V255.433H167.44V297.436H97.436V220.431V178.429Z" fill="white"/>
</svg>
